/* XPM */
static char *e08bfbf1d3de4777aedbccb7ca2a80a1EWjBwEaTC9VNfSni[] = {
/* columns rows colors chars-per-pixel */
"64 64 219 2 ",
"   c #171915",
".  c #1A1C17",
"X  c #1C1E19",
"o  c #1F211B",
"O  c #22241D",
"+  c #27281F",
"@  c #252720",
"#  c #262921",
"$  c #2B2D25",
"%  c #2D2F28",
"&  c #2F312A",
"*  c #33342C",
"=  c #39392D",
"-  c #363831",
";  c #3A3B34",
":  c #3C3D34",
">  c #3F4038",
",  c #444335",
"<  c #43443A",
"1  c #47483F",
"2  c #4A4A3C",
"3  c #605C38",
"4  c #494942",
"5  c #4C4D43",
"6  c #535346",
"7  c #535048",
"8  c #54554B",
"9  c #59564A",
"0  c #5A554C",
"q  c #5A594E",
"w  c #575956",
"e  c #5D5D53",
"r  c #615F53",
"t  c #675D5B",
"y  c #5F6057",
"u  c #5E605D",
"i  c #6F6C4D",
"p  c #636257",
"a  c #65645A",
"s  c #68675C",
"d  c #6B695D",
"f  c #6A6661",
"g  c #6C6C62",
"h  c #6F6F68",
"j  c #716E65",
"k  c #796668",
"l  c #736E69",
"z  c #737167",
"x  c #767469",
"c  c #79746E",
"v  c #7C7873",
"b  c #857D5D",
"n  c #866C71",
"m  c #827C73",
"M  c #877678",
"N  c #857C7A",
"B  c #937B7D",
"V  c #B3777D",
"C  c #B57D7C",
"Z  c #AE9132",
"A  c #C7960B",
"S  c #C9970B",
"D  c #C79A0C",
"F  c #CA9D0C",
"G  c #C69B15",
"H  c #CA9C13",
"J  c #C79E19",
"K  c #CA9F1A",
"L  c #C6A40A",
"P  c #CCA40B",
"I  c #CDAA0B",
"U  c #D0A60B",
"Y  c #D2AD0B",
"T  c #CEB40B",
"R  c #CEBB0C",
"E  c #D3B30B",
"W  c #D1BA0B",
"Q  c #CCA414",
"!  c #CEAB13",
"~  c #C6A418",
"^  c #CDA41C",
"/  c #CEAA1D",
"(  c #D1A616",
")  c #D2AB14",
"_  c #D0A61D",
"`  c #D2AB1C",
"'  c #CDB514",
"]  c #CEB910",
"[  c #CDB21B",
"{  c #CEBF1B",
"}  c #D4B313",
"|  c #D9B717",
" . c #D9BA15",
".. c #D2B31C",
"X. c #D9B51C",
"o. c #D3B81C",
"O. c #D8B91C",
"+. c #CEA522",
"@. c #CEAB23",
"#. c #C6A52D",
"$. c #D0A722",
"%. c #D2AC23",
"&. c #D4AE2A",
"*. c #D4B124",
"=. c #D9B523",
"-. c #D6BB24",
";. c #D9B921",
":. c #D6B22D",
">. c #D9B42D",
",. c #C8B638",
"<. c #D3B63C",
"1. c #CEC10B",
"2. c #98854B",
"3. c #868379",
"4. c #8D857E",
"5. c #BC946D",
"6. c #BC9C6C",
"7. c #BA8676",
"8. c #B68C75",
"9. c #BA8C75",
"0. c #B4847D",
"q. c #B9847A",
"w. c #B48C7C",
"e. c #B98B79",
"r. c #AE907B",
"t. c #B69575",
"y. c #BA9374",
"u. c #BB9B72",
"i. c #B5937B",
"p. c #B9937C",
"a. c #B79D78",
"s. c #B99C7B",
"d. c #BEA566",
"f. c #BCA36D",
"g. c #BEAB6B",
"h. c #BFB067",
"j. c #BEB26A",
"k. c #BBA876",
"l. c #BAAA78",
"z. c #BCB977",
"x. c #CDB443",
"c. c #C6B64A",
"v. c #C5AB5D",
"b. c #C7B757",
"n. c #C4B259",
"m. c #C19E66",
"M. c #C2A664",
"N. c #C1B465",
"B. c #C1B46A",
"V. c #C1BA69",
"C. c #C1AC71",
"Z. c #987B86",
"A. c #AF7686",
"S. c #AE7C84",
"D. c #AD758D",
"F. c #A67D8E",
"G. c #AB7B8C",
"H. c #B27486",
"J. c #B27C85",
"K. c #B1748B",
"L. c #B17B8B",
"P. c #A67793",
"I. c #AB7593",
"U. c #A57B94",
"Y. c #AA7B93",
"T. c #A6779B",
"R. c #AA759A",
"E. c #A57A9A",
"W. c #AA7999",
"Q. c #B07792",
"!. c #B27B93",
"~. c #968F8D",
"^. c #998889",
"/. c #9D8A96",
"(. c #9E8C94",
"). c #9E849B",
"_. c #AE8284",
"`. c #AC8A83",
"'. c #A4878B",
"]. c #A5838D",
"[. c #AC828D",
"{. c #AE828D",
"}. c #AD858E",
"|. c #AE8A8C",
" X c #B28381",
".X c #B38981",
"XX c #B2838A",
"oX c #B18C8C",
"OX c #AE9082",
"+X c #AE938E",
"@X c #B1938E",
"#X c #B09E8F",
"$X c #A48392",
"%X c #AB8393",
"&X c #A38A93",
"*X c #AC8A94",
"=X c #A08299",
"-X c #A38F98",
";X c #AB8F99",
":X c #B18393",
">X c #B08994",
",X c #AC9493",
"<X c #AD9C95",
"1X c #A29299",
"2X c #A9939B",
"3X c #B09992",
"4X c #AFAE96",
"5X c #ABA599",
"6X c #ACAC9B",
"7X c #B0A393",
"8X c #B0AA95",
"9X c #ACB39D",
"0X c #AEB99A",
"qX c #A7B9A5",
"wX c #AABBA4",
"eX c #ADC199",
"rX c #B0C89B",
"tX c #AAC6AB",
"yX c #B0C8A0",
/* pixels */
">.>.>.>.>.>.>.:.*.%.%.%.%.%.&.&.:.:.:.:.:.:.:.:.:.*.` ` ..} } ] ] R R R W W W W E } } ..` %.&.&.&.&.&.&.&.&.:.:.:.:.:.:.:.:.:.:.",
">.>.>.>.>.>.>.*.%./ / %.%.%.%.&.&.:.:.:.:.:.*.*.*.*...' ' ] R W W R R R R R E E E } ..` ` &.&.&.&.&.&.&.&.&.&.:.:.:.:.&.:.:.:.:.",
">.>.>.>.>.>.>.%.@./ / / ` @.%.&.:.:.:.:.>.>.*.*.....' ' ] W R R R R R W W W W E E } ` ` %.&.&.&.&.&.&.&.&.&.&.&.&.&.&.&.&.&.:.:.",
">.>.>.<.B.k.s.p.w..Xe.p.u.C.B.c.*.:.>.x.g.u.p.w. X0.q.e.y.f.{ R R W b.f.y.e.q.q.q.e.u.g.c.%.&.%.x.C.u.9.q.q.q.q.e.y.f.B.x.&.:.:.",
">.>.>.b.2X2X2X;X;X*X>X:X:X:X%XyX*.*.*.z.*X*X*X%X}.{.{.{.}.}.j.W W W tX}.{.XX{.XX{.}.}.*XtX%.%.%.V.}.}.}.{.{.{.{.%X%X%X%XV.&.&.:.",
">.>.>.b.2X2X;X;X*X:X:X:X:X:X:XeX*.*...z.*X*X}.{.{.{.XX{.{.}.j.W W E wX{.XXXXXX{.{.}.}.&XwX%.$.+.j.}.}.{.{.{.{.%X%X%X%X%XB.&.&.&.",
">.>.>.n.2X;X;X*X:X:X:X:X!.!.L.0X*.*...z.%X}.}.{.{.L.L.L.{.{.g.} E } wX{.L.S.L.S.{.].].].wX_ +.+.g.}.}.{.{.{.%X%X%X%X%X%Xj.&.&.&.",
">.>.>.v.;X;X*X%X:X:X!.!.!.!.!.0X` / [ l.%X%X{.G.L.L.L.L.{.{.g.} ) ` wXL.L.L.L.L.L.S.].}.9X^ ^ +.f.].{.{.G.G.Y.Y.Y.%X%X%Xg.&.&.:.",
">.>.>.v.;X*X%X:X:X!.!.!.Q.Q.L.4X/ ! ! k.%X%X{.L.L.L.L.L.L.G.f.` ) ( 6XL.J.J.J.L.L.L.{.].6X^ ^ +.f.{.S.G.L.G.Y.Y.Y.Y.%X%Xf.&.:.:.",
">.>.>.v.*X*X%X:X!.!.!.!.!.Q.Q.8XQ ! ! k.%XG.G.G.L.L.L.L.G.G.u.Q H H 5XJ.J.J.H.H.L.L.S.G.5X^ ^ ^ u.S.L.L.L.L.G.Y.Y.Y.Y.%Xf.:.:.:.",
">.>.>.M.*X*X:X:XY.W.W.!.!.!.Q.7XQ ! I s.%XY.Y.L.K.K.K.L.G.G.u.H H H 7XH.J.H.H.H.K.G.G.G.<XQ Q / u.L.L.L.K.L.L.Y.Y.Y.%X%Xu.&.:.:.",
">.>.:.M.*X*X%X%XW.W.W.R.W.Q.Q.3X^ ! P s.Y.Y.Y.Q.K.K.K.L.G.G.y.H H H 3XH.H.H.H.H.K.G.G.G.<XQ ! / y.L.H.K.K.K.L.Y.Y.Y.Y.%Xu.%.%.:.",
">.>.&.m.*X%X%X%XW.W.R.R.R.I.Q.3X^ Q P p.Y.Y.Y.Q.K.K.K.D.G.G.y.D H S 3XH.H.H.K.K.K.D.G.G.,X! ! [ y.H.H.H.K.K.K.I.I.W.Y.%Xy.%.%.&.",
">.>.&.6.*X%X%XY.W.W.R.R.R.R.Q.@X~ Q L i.Y.Y.Y.Q.K.K.K.D.L.G.9.D D S @XH.H.K.K.K.D.D.D.G.,X[ ..o.9.H.H.K.K.K.D.I.W.W.Y.%Xy.%.%.%.",
">.:.&.6.%X%X%XY.W.W.R.R.R.I.I.@X^ L L w.Y.Y.Y.I.K.K.K.K.Q.G.e.D A A oXH.H.K.D.D.D.D.D.Y.*X....o.e.H.H.H.K.K.I.I.W.W.Y.Y.y.%.` %.",
">.&.%.5.%X%X%XY.W.W.R.R.R.I.Q.oX~ I I w.Y.Y.Y.I.Q.K.Q.D.G.G.e.A S A oXH.K.^.4.D.D.D.D.Y.|.......7.H.H.H.K.D.I.I.I.W.Y.Y.y./ / %.",
">.&.%.5.*X%X%XY.W.R.R.R.R.I.Q.oXQ Y E w.Y.Y.Y.D.K.K.D.D.G.G.q.A A A oXH.4.3.3.D.D.D.D.I.|.......q.H.H.H.K.K.I.I.I.W.Y.Y.e.^ / / ",
":.&.%.y.%X%XY.I.W.R.R.R.R.I.I.oX! T T .XY.Y.Y.K.K.K.D.D.G.G.q.H H D XXB v d 3.F.I.I.I.I.}.......q.H.H.H.K.D.I.I.I.W.Y.Y.e.^ / / ",
"&.%.%.9.%X%XY.I.W.R.R.R.R.I.I.XXI R R .XY.Y.G.D.K.K.D.D.G.G.q.K H F '.h s q c Z.I.I.I.Y.{.......C H.H.H.K.K.I.I.I.W.Y.Y.e.^ / %.",
"&.%.$.9.%X%XY.I.R.R.R.R.R.R.I.XXT R R  XY.G.D.D.D.K.D.D.G.G.q.Q F G l w 5 r g B I.I.I.P.{...*...C H.H.K.K.D.I.I.I.W.Y.Y.0.^ %.%.",
"&.%._ e.%X%XY.I.R.R.R.R.I.I.I.XXR R R  XG.Y.G.D.D.D.D.D.D.G.C H F b u 4 r q e N I.I.P.Y.{.*.*.*.C H.H.H.K.D.I.I.P.P.Y.Y.7.%.@.%.",
"&.%.^ e.%X%XY.I.W.R.R.R.I.I.I.XXR W 1. XY.Y.G.D.D.D.D.D.G.G.C H 2.f 5 q s < 6 N I.P.P.Y.S.*.*.*.C H.H.K.K.D.I.I.I.P.Y.Y.0.%.%.@.",
"&.$.^ 7.%X%XY.I.R.R.R.R.I.I.I.L.R R 1.J.Y.Y.D.D.D.D.D.D.D.G.C Z j 5 6 a a O 6 m I.P.P.P.S.*.*.*.V H.H.K.K.D.I.I.I.Y.Y.Y.0.%.@.%.",
"%._ _ 7.%X%XY.I.R.R.R.R.R.I.I.L.R R R J.Y.Y.D.D.D.D.D.D.G.G.C z 5 4 q g 5 * a m P.P.P.P.G.*.*.*.C H.H.K.K.D.I.I.I.P.Y.].0.%./ %.",
"%._ ^ 7.%X%XY.I.R.R.R.R.R.I.I.J.R R R J.Y.Y.D.D.D.D.D.D.D.G.M 8 = 7 p g & : s v Z.P.P.P.G.*.*.*.V H.H.K.K.D.I.I.I.Y.Y.Y. X` %.%.",
"%.^ ^ 7.%X%XY.I.R.R.R.R.R.I.I.L.R R R J.Y.G.D.D.D.D.D.D.D.Z.a # > 8 g e O : s h Z.P.P.P.G.&.%.%.V H.H.K.K.D.I.I.I.P.Y.Y. X` ` %.",
"^ ^ K 0.%X%XY.I.R.R.R.R.I.I.I.L.R R R S.Y.G.D.D.D.D.D.D.G.c * O 5 e g , # 4 d h M I.P.P.G.%.%...V H.H.K.K.D.I.I.I.P.P.G. X` / @.",
"^ ^ ~ q.%X%XY.W.R.R.R.R.I.I.D.L.R R T S.Y.G.D.D.D.D.D.D.B 4 O * 8 p s $ $ 8 s h M I.P.P.G.....[ V H.H.K.D.D.I.I.I.P.Y.].S./ / @.",
"^ ~ ~ q.%X%XY.W.R.R.R.R.I.I.Y.L.E E E S.G.G.D.D.D.D.D.G.t % o < e s 6 # # q a g M I.P.P.G.[ [ [ V H.H.K.D.D.I.I.Y.Y.Y.].S.! / ` ",
"^ ^ J  X%X%XY.I.R.R.R.R.I.I.Y.L.I I P S.G.Y.D.D.D.D.D.n < O # 5 e g * $ @ r e e c P.P.P.F.' ' R V H.H.K.D.D.I.I.W.W.Y.$XS.! ! ` ",
"^ ^ J  X%XY.I.W.R.R.R.R.I.I.G.G.I P P S.G.G.D.D.D.D.D.8 % . - 8 r p $ $ # s e e l P.P.W.F.' R R J.H.A.D.D.D.I.I.W.W.Y.Y.S.! ) ` ",
"+.^ J  X%XY.I.W.R.R.R.R.I.I.G.G.I P P G.G.G.D.D.D.D.k > o . 4 q s 5 $ # $ d e w l P.P.W.F.R R R V H.A.D.D.D.I.I.I.W.Y.Y.S.I ) ` ",
"+.^ J  X%XY.Y.W.R.R.R.R.I.I.D.G.P P P G.G.Y.D.D.D.G.4 * . @ 6 e g : $ O * s q w l P.W.W.F.R R R S.A.A.A.D.D.I.I.I.Y.Y.Y.S.I ! ` ",
"%.+.^  X%XY.W.W.R.R.R.R.I.I.G.G.P I I G.Y.Y.D.D.D.k : +   * 8 e a * $ X : p 1 8 l P.W.W.F.T R R S.A.A.D.D.D.I.I.P.W.Y.Y.S.I ) ` ",
"$.$.^  X%XY.W.W.W.R.R.R.I.I.G.G.I I P S.Y.Y.I.D.D.5 * o . < q a q $ # . 1 e < 5 l P.W.P.F.T ] R S.A.A.A.D.D.I.I.W.P.Y.Y.S.Y ) ` ",
"$._ (  X%XY.W.W.R.R.R.R.I.I.G.S.I I I S.Y.Y.Y.D.n < $ . o 5 q s < # O . 8 6 : 5 l P.P.P.F.T R ' S.A.A.D.D.D.I.I.P.W.Y.Y.S.I ) ` ",
"%.` (  X%XY.W.W.R.R.R.R.I.I.G.S.I I I S.G.G.Y.D.0 : O . $ 8 e s * # X O e 4 ; 5 l P.P.P.F.R ' ' V A.A.D.D.D.I.P.W.Y.Y.$X_.I ! ` ",
"%.` ( 0.%XY.W.W.R.R.R.R.I.I.G.S.I I I S.F.G.Y.F.6 * O . * 8 e p $ # X * e < * 8 l P.P.P.F.' ' ' V G.A.D.D.D.I.Y.W.Y.Y.]._.P ! ` ",
"` ` ` 0.%XY.Y.W.R.R.R.R.I.I.G.S.I Y I S.F.Y.Y.Z.5 * O . : 8 a 6 # O X < 8 : * q l P.P.P.F.' [ [ V G.G.D.D.D.I.P.P.Y.Y.$X_.P Q %.",
"%.` ` 0.%XY.Y.W.R.R.R.R.I.Y.Y.S.Y Y Y S.F.Y.Y.N 2 & O X 4 8 s < $ X O 8 2 - - e c P.P.P.F.[ [ [ C G.G.G.D.D.I.I.P.Y.Y.$X_.Q Q %.",
"%.` ` 0.%X%XY.W.T.T.R.R.I.Y.G.S.Y U U S.G.G.Y.4.2 % O X 5 q s : # X $ p : * : g v P.P.P.Y.[ [ [ S.G.A.G.G.D.I.P.W.W.Y.$X_.Q ^ %.",
"%.` ` 0.%XY.Y.T.T.R.R.R.I.Y.G.S.P P P _.F.G.Y.~.6 $ O O 6 e p = O X = q : % < z N E.P.P.Y.[ [ ..C G.G.G.G.D.I.P.W.W.Y.Y._.Q +.%.",
"*.%.` 7.$X%XY.W.W.T.T.R.I.Y.Y.{.P P P _.].Y.Y.^.a $ o # 6 y 6 $ O O 5 5 ; $ 4 z Z.W.P.P.F.[ ..*.C G.G.G.G.D.I.Y.W.W.U.Y._.K +.%.",
"*.*.` 7.%X%XY.W.W.T.T.T.I.Y.Y.{.P P P _.].Y.Y.^.x & O $ 8 y - O o $ 8 ; - # e x Z.W.P.P.].[ ..*.C F.G.G.G.D.I.I.W.W.Y.Y..X~ $.&.",
"*.*...8.%X%XY.W.T.T.R.R.R.Y.Y.{.U I P .X].Y.Y.Y.m 5 # % 8 e & O O < 8 * % & l v P.W.P.P.]...*.*.0.G.G.G.G.G.Y.Y.W.Y.U.$X0.^ %.&.",
"*.*...8.%X%X%XW.W.R.T.R.W.Y.Y.|.Y I P  X].F.Y.Y.Z.s $ * 9 8 $ O = 8 < $ + : x N P.P.P.P.].*..... XF.G.G.G.G.Y.Y.P.U.U.$X0.+.+.&.",
"=.=.X.8.%X%XY.W.T.T.T.R.W.Y.Y.|.Y Y Y .X].$XY.P.P.M : $ 5 2 $ $ , e ; $ $ 5 c F.P.P.P.P.%X......0.F.F.G.G.G.Y.Y.P.P.Y.$Xw.+.%.&.",
"=.X.| 9.%X%XU.T.T.T.T.R.W.Y.Y.|.Y Y Y .X$X$XY.Y.P.W.t * 5 2 : , 6 q : % : a ].F.P.P.W.P.}.....) 0.F.G.G.G.G.Y.Y.P.U.Y.$Xw.+.$.&.",
"=.X.X.8.%X%XY.E.W.W.T.W.W.W.Y.|.Y Y Y .X$X$XY.Y.U.W.W.7 4 2 2 2 6 q 5 7 l G.G.G.P.W.P.P.%X....Y 0.F.G.G.G.G.Y.W.W.Y.U.$Xw.+.&.&.",
"=.X.X.y.%X%X%XE.W.T.T.T.W.W.Y.oXE E Y w.&X$X$XY.U.W.W.W.f 0 9 3 9 i m ^.{.{.G.G.P.W.W.P.*X..E E 0.].F.G.G.G.Y.Y.Y.Y.Y.$Xw.@.&.:.",
"X.X.| 5.&X%X%XE.T.T.T.T.W.Y.Y.@XE E E w.].$X$XY.U.W.U.U.U.&XOX,.,.,.+X].].F.G.G.F.P.U.U.*X} E Y w.].].F.G.G.Y.Y.W.Y.Y.$Xy.&.&.:.",
"X.X. .5.&X%X%XY.T.W.W.T.W.Y.Y.+XE E E i.].$X$XY.U.U.U.U.U.U.w.T T I +X].].G.G.G.F.Y.U.U.,X} Y Y 8.$X].F.G.G.Y.Y.Y.Y.Y.%Xy.&.&.:.",
"=.O. .6.&X%X%XE.Y.W.W.W.W.Y.Y.+XE E Y i.&X$X$XY.U.W.W.E.U.$Xw.I I I ,X].{.{.G.G.G.P.W.U.,XY Y U t.$X].].G.G.G.Y.Y.Y.Y.%Xy.&.:.:.",
"=.O.| 6.&X%X%X%XY.Y.W.Y.W.Y.Y.#XY Y E i.].&X$XY.U.U.U.E.U.$Xi.! ! ! <X].].].{.F.F.Y.W.U.,XY U P t.&X].].F.G.G.Y.Y.Y.Y.%Xu.&.:.:.",
"=.| | d.&X&X%X%X%XY.W.W.Y.Y.Y.7XY Y Y s.&X&X$X$XU.U.U.U.U.$Xt.! ) ! <X].].].].G.G.Y.W.W.<XU P F t.&X].].].G.G.Y.Y.Y.Y.%X6.:.:.:.",
"=.X.X.M.&X&X%X%X%XY.Y.Y.Y.Y.Y.7XY Y Y a.&X&X&X$XU.U.U.E.U.$Xu.) ! ! 5X'.].].].].F.Y.U.U.5XP F F u.&X].].].G.G.Y.Y.Y.Y.%Xf.:.:.:.",
"=.X.| M.&X&X$X%X$X%X%XY.Y.%X%X4XY Y Y k.&X&X&X$X$XU.U.E.E.=Xu.` Q ( 6X].].].].].].Y.Y.U.5XF F P f.&X&X].].].G.G.G.G.{.{.f.:.:.:.",
"=.X.| v.&X&X&X$X$X%X%X%X%X%X%X4XY Y Y k.&X&X&X&X$X$XE.).=X).f.^ ( ^ 9X&X].].].].].$XU.U.9XF F P f./.&X&X&X].].G.G.Y.{.{.C.:.:.:.",
"=.X.| n.-X-X-X&X&X%X%X%X%X%X&X0XY Y Y l.&X(.&X&X&X$X).).).).g.^ ^ ` wX(.&X&X].].&X$X$X$XqXF P I g././.&X&X&X&X&X%X%X].}.B.:.:.:.",
"X.X.| b.1X1X-X-X&X&X&X&X&X&X&X0XE Y Y z.(.(.&X&X/.=X).).).).j.^ _ _ wX(.(.&X&X&X&X&X$X).qXI I I j././.(.&X&X&X&X%X%X%X%XB.:.:.:.",
"X.X.| c.1X1X1X1X-X&X&X&X&X&X&XrXY Y Y z.(.(.(.(./.).).).).).B.^ ^ ^ tX(.(.&X&X&X&X&X&X).eXI I I n././.(.(.&X&X&X%X%X%X}.V.:.:.:.",
"O.X.O.-.g.a.i.OX`.|.`.w.i.u.h.,.Y Y Y @.f.i.`.`.].].]._.w.a.#.^ %.%.c.6.i.`.`.'.`.w.t.d.T I T E R f.t.r.`.`.`.0.8.y.f.N.<.:.:.:.",
";.O.X.X.|  . .| | O.;.O.O.;.o.} Y Y Y Y U P F K G G G G G ^ +.+.@.%.` / Q P P F P P P I I T E E E E E } =.=.:.:.:.:.:.:.:.:.:.:.",
";.=.O.|  . . .| O.O.O.O.O.;.=...Y Y Y Y U U F G G G G G J K +.@.%.%.^ Q P P P P P I T I E E E E E E } o.=.=.:.:.:.:.:.:.:.:.:.:."
};
