/* XPM */
static char *_d75f29ea25c43ecfd5b00010ec8d659HgqSWuyhNW1OyuUi[] = {
/* columns rows colors chars-per-pixel */
"64 64 177 2 ",
"   c #DAAE00",
".  c #D5AB0D",
"X  c #DAAE0D",
"o  c #DCB300",
"O  c #DDBA01",
"+  c #DFB60D",
"@  c #DEBB0A",
"#  c #D7AE11",
"$  c #D8AF12",
"%  c #DDB415",
"&  c #DEBB15",
"*  c #DCB51A",
"=  c #DEBA1B",
"-  c #E1B600",
";  c #E2BD01",
":  c #E2BC0B",
">  c #E1B714",
",  c #E3BC14",
"<  c #E0B71A",
"1  c #E2BC1C",
"2  c #DEBB21",
"3  c #E3BE22",
"4  c #E3C203",
"5  c #E4CC01",
"6  c #E8CA02",
"7  c #E4C20B",
"8  c #E9C70B",
"9  c #E0CD0B",
"0  c #E9CD0C",
"q  c #E1D102",
"w  c #E5C214",
"e  c #E9C514",
"r  c #E2C914",
"t  c #E9CB13",
"y  c #E4C21B",
"u  c #E9C41C",
"i  c #E9CA1B",
"p  c #E9D019",
"a  c #E5C225",
"s  c #E9C324",
"d  c #E5CD20",
"f  c #E9C824",
"g  c #E7C329",
"h  c #E9C62B",
"j  c #E3CA3C",
"k  c #BA9D7B",
"l  c #BEA472",
"z  c #C09E7C",
"x  c #C1AB6B",
"c  c #CCBB62",
"v  c #C9B96B",
"b  c #C4A873",
"n  c #C1A47B",
"m  c #C3AB7E",
"M  c #C4B877",
"N  c #C7B977",
"B  c #C4B37C",
"V  c #DCC740",
"C  c #D2C456",
"Z  c #CAC176",
"A  c #CCCB72",
"S  c #977297",
"D  c #9D7296",
"F  c #9A7499",
"G  c #A96E8F",
"H  c #A7708F",
"J  c #A9708F",
"K  c #AF7D8F",
"L  c #B07F8C",
"P  c #A16F91",
"I  c #AA6F90",
"U  c #A57091",
"Y  c #AB7394",
"T  c #AC7C96",
"R  c #AB7799",
"E  c #AB7A9B",
"W  c #B07697",
"Q  c #B17B95",
"!  c #B07799",
"~  c #B17B9B",
"^  c #B17E9E",
"/  c #8A7BA5",
"(  c #B47FA0",
")  c #7A81AE",
"_  c #6984B7",
"`  c #6189BF",
"'  c #2E9ADE",
"]  c #3D96D7",
"[  c #3399DC",
"{  c #2E9CE0",
"}  c #11ADFA",
"|  c #31A9EF",
" . c #39A9ED",
".. c #28AEF5",
"X. c #32ADF2",
"o. c #3CAFF1",
"O. c #558DC6",
"+. c #598BC2",
"@. c #518EC8",
"#. c #4D90CB",
"$. c #4CAEEC",
"%. c #53ADEA",
"&. c #5CAEE9",
"*. c #5EB3EC",
"=. c #46B1F1",
"-. c #6BACE4",
";. c #69B6EC",
":. c #7BB5E7",
">. c #AF848F",
",. c #AF888F",
"<. c #B68C84",
"1. c #B2838C",
"2. c #B1828E",
"3. c #B1868E",
"4. c #B38B8D",
"5. c #B88D89",
"6. c #B99784",
"7. c #BD9A84",
"8. c #B79789",
"9. c #B5928D",
"0. c #B9928C",
"q. c #AD8394",
"w. c #AE8A92",
"e. c #AB819E",
"r. c #B18494",
"t. c #B38992",
"y. c #B5809F",
"u. c #BBA381",
"i. c #AD84A1",
"p. c #B483A3",
"a. c #B985A5",
"s. c #B689A7",
"d. c #BA88A7",
"f. c #BA87A8",
"g. c #B48DA8",
"h. c #BD8BAB",
"j. c #B792AC",
"k. c #BB92AD",
"l. c #BE92B0",
"z. c #C0A282",
"x. c #C08EAE",
"c. c #C191AE",
"v. c #C18FB0",
"b. c #C494B3",
"n. c #C896B7",
"m. c #C599B4",
"M. c #C599B6",
"N. c #C89AB7",
"B. c #C797B8",
"V. c #C897B8",
"C. c #C69BB9",
"Z. c #CB9CBC",
"A. c #C6A1BB",
"S. c #CCA2BE",
"D. c #94A2D1",
"F. c #A3A1CD",
"G. c #AFA3CB",
"H. c #ABB5DC",
"J. c #A6B8DE",
"K. c #BAB2D5",
"L. c #CE9FC0",
"P. c #CFA2C1",
"I. c #CBA9C1",
"U. c #CDADCC",
"Y. c #D1A5C3",
"T. c #D3AAC6",
"R. c #D6ADC9",
"E. c #D8AFCB",
"W. c #D7B0CB",
"Q. c #D9B3CD",
"!. c #C3B6D7",
"~. c #C8B3D3",
"^. c #CFBAD7",
"/. c #DCB6D0",
"(. c #DDBAD3",
"). c #E0BFD6",
"_. c #E3C3D9",
/* pixels */
"h h h h h h h s a 1 1 1 3 3 a a g h h h h h h h s s y w y 9 9 9 q 5 5 q q q 5 5 5 6 8 e y u s s s s s s s g h h h h h h h h h h ",
"h h h h h h h a 1 = = = = 1 a a g h h h h h f s y y r r 9 9 q q q q q q q 5 5 5 5 8 e e y u s s s s s s s s g h h h g g g h h h ",
"h h h h h h s a = = = = = = 1 a a g h h f f y y r r 9 9 q q q q q q q q q 5 5 5 6 7 w w y u s s s s s s s s s a a a a a g g g h ",
"h h h j N m 7.8.0.t.0.9.9.9.9.9.<.<.3.>.q.q.T T T E E E E E E E E E E R E E E E E T T T T K K L 2.>.3.3.2.2.2.2.5.7.n Z V a g h ",
"h h h C e.E E E E E E E E E E E E E E E E R E E E E E E E E E R R R R R R R R R R R R E E E E E E E E E E E E E E E E E A a g g ",
"h h h c E E E E E E E E E E E E E E E E R R E E E E E E R R R R R R R R R R R R R R R R R R E E E E E E E E E E E E E E N a a g ",
"h h h v E E E E E E E E E E E E E E E E R R R R E R R R R R R R R R R R R R R R R R R R R R R R E E E E E E E E E E E E B a a g ",
"h h h b E E E E E E E E E E E E E E E E E R R R R R R R R R R R R R R R R R R R R R R R R R R R R R E E E E E E E E E E u.a g h ",
"h h h n E E E E E E E E E E E E E E ^ h.h.^ R R R R R R R R R R R R R R R R R R Y Y R R R R R R R R R E E E E E E E E E 6.a s h ",
"h h h z E E E E E E E E E E E E ^ k.M.T.T.h.^ p.~ R R R R R R R R R R R R Y Y Y Y Y Y R R R R R R R R R E E E E E E E E 0.s s s ",
"h h h 7.E E E E E E E E E E E d.b.S.P.R.Q.Y.M.M.h.~ R R R R R R R R R R Y Y Y Y Y Y R R R R R R R R R R R R E E E E E E 4.s s s ",
"h h g 6.E E E E E E E E E E E k.S.P.C.Y.W.(.R.S.S.a.~ ^ ~ W R R Y R R Y Y Y Y Y Y Y R R R R R R R R R R R R E E E E E E 4.s s s ",
"h h a 0.E E E E E E E E E E E M.W.T.S.Y.T.Q.T.S.S.c.h.M.b.c.h.a.! ! Y Y Y Y Y Y Y Y Y Y R R R R R R R R R R R E E E E E >.u u s ",
"h h a 4.E E E E E E E E E ^ d.M.W.Q.T.S.Z.Y.P.P.C.C.Y.T.Y.Y.N.c.h.p.R Y Y Y Y Y Y Y Y Y Y R R R R R R R R R R R E E E E >.y u u ",
"h g a 4.E E E E E E E E p.C.P.P.T.Q.Q.Y.P.P.Y.Y.N.P.T.S.C.S.N.S.C.h.R Y Y Y Y Y Y Y Y Y Y Y R R R R R R R R R R E E E E q.y y y ",
"h a 3 4.E E E E E E E E a.S.R.Y.R.Q.Q.Q.E.P.P.Y.Z.S.P.B.b.x.c.C.N.a.~ Y Y Y Y Y Y Y Y Y Y Y R R R R R R R R R R E E E E T & 1 y ",
"h a < r.E E E E E E E ~ d.Y.T.L.Y.R.R.Q./.R.Y./.Q.R.T.Z.N.b.h.a.h.N.c.~ Y Y Y Y Y Y Y Y Y Y Y R R R R R R R R R E E E E T & , 1 ",
"g 3 < r.E E E E E E E p.M.R.T.Z.Z.P.Y.Y.R.R.R./.(.Q.T.L.Z.N.v.x.b.Y.S.Q Y Y Y Y Y Y Y Y Y Y Y R E ^ ^ E R R R R E E E E T & 1 1 ",
"a 3 < q.E E E E E E E ^ x.Y.Y.Z.Z.L.L.L.P.Y.Y.P.Y.T.P.Z.Z.N.b.h.h.S.Z.h.~ Y Y Y Y Y Y Y Y Y Y R a.b.M.h.E R R R E E E E R & 1 y ",
"3 3 < q.E E E E E E E ( M.T.Y.Z.Z.L.Z.L.L.P.P.Z.Z.Z.Z.Z.Z.N.b.x.f.N.Z.x.y.W Y Y Y Y Y Y Y Y Y R h.Y.Q.Y.p.R R R R E E E R & y y ",
"a < < T E E E E E E E h.Y.Q.T.Z.Z.Z.L.L.L.L.Z.Z.Z.Z.Z.Z.Z.N.h.x.p.x.a.Q R Y Y Y Y Y Y Y Y Y Y ~ b.P.R.P.d.E R R R E E E R y y y ",
"3 < % T E E E E E E ~ x.C.R.P.Z.Z.Z.L.Z.Z.Z.Z.Z.Z.Z.N.b.V.b.f.f.W Y Y Y Y Y Y Y Y Y Y Y Y Y R h.T.T.Y.T.P.l.E R R R R E R y y y ",
"3 < % T E E E E E ^ b.M.Z.S.M.N.Z.Z.Z.P.Z.Z.N.M.Y.S.Z.n.M.x.a.! Y Y J J Y Y W W W ! ( f.~ ~ f.Z.Q.R.T.R.W.S.E R R R R R R y y u ",
"3 < % T E E E E E d.Y.R.C.C.P.Q.Q.Y.T.R.Y.M.M.b.Z.Z.x.p.~ ~ ( Y Y J G Y a.c.h.x.b.b.x.x.a.M.Y.Q.Q./.Q.T.T.S.p.R R R R R R y w u ",
"< < % E E E E E p.M.T.P.S.C.T./.Q.T.Y.Y.Y.N.p.Y ~ ~ ! Y G G I Y Y I Y p.b.S.S.T.Y.P.Z.N.b.Y.R.Q.Q./.Q.Y.Y.Y.M.p.R R R R R y y u ",
"< % % E E E E ( l.C.S.S.M.S.C.d.b.M.y.^ h.d.Y Y Y I I I I G G I I I R p.M.C.Y.T.T.Y.R.Q.T.R.E.T.Y.Y.Y.Z.Y.Y.B.h.E R R R E w w y ",
"% % $ E E E p.s.M.C.M.C.p.k.h.R R Y Y Y R Y Y Y I I I I I G G I I G R b.Y.Z.Z.Y.P.Y.R./.R.Q./.T.P.L.Z.Z.B.Y.P.h.R R R R E w w y ",
"% % % R E E p.p.p.p.h.h.E E R Y Y Y Y Y Y Y Y Y I I I I Y I G Y R Y Q Y.T.Z.Z.Z.L.P.T./.Q.Q.Q.Y.P.L.L.N.M.R.W.b.R R R R E w w y ",
"% % # R E E E R E E E ^ R R Y Y Y Y Y Y Y Y Y Y I I Y ( a.d.h.b.C.x.h.T.Y.Y.Y.T.T.P.R.(.(.R.T.Y.Y.P.Z.N.M.T.P.p.R R R R E : w , ",
"* % # E E E E R R R R R Y R Y Y Y Y Y Y Y Y Y I G I p.C.R.R.Q.Q.W.S.P.Q.Q.R.Q.(.=.X.^._.:.o.$.T.R.Y.Z.Y.R.R.S.d.R R R R E 7 7 w ",
"* % $ E E R E R R R R R Y Y Y Y Y Y Y ` O./ #.] G Y a.S.Q.(.Q.W.R.T.Q.(.R.U.H.H.;.} :.J.&.U.Q.Q.E.Y.Y.R.(.Q.P.b.R R R R E 7 7 w ",
"* % # E E E E R R R R R R Y Y Y Y Y J D ) { / F G Y a.h.T.Q.Y.P.Z.Y.R.R.G. .-.-.*...} %.G.Y.T.R.T.P.L.R.Q.R.B.a.R R R R E 4 7 w ",
"= * $ E E E E R R R R R R R Y Y Y Y Y Y D ` G G G I R ~ M.C.b.b.b.M.N.P.D.F.Y.R.Q.~.X.| P.Y.Y.Y.P.P.P.Y.Y.P.N.h.R R R R E 4 4 w ",
"< = % E E E E R R R R R R Y Y Y Y Y Y Y G J G G G I I G ^ ~ R R Y ~ h.Z.L.L.L.Y.T./.K.$.-.E.R.R.Y.P.P.P.Y.Y.P.b.E R R R E ; 4 e ",
"< < % E E E E E R R R R R Y Y Y Y Y G G G G I G G G G D +.] +.G G G a.M.Z.Z.Z.Z.Z.T.R.U.%.!.(./.Q.R.Y.Y.R.Q./.T.h.E R R E 4 4 e ",
"< < > E E E E E R R R R Y R Y Y Y I G H G G G G @.[ @.' _ S P G G I Y p.M.M.M.b.N.N.N.S.P.R.Q.Q.Q.R.R.Y.R.Q.).(.M.E R R E ; 7 w ",
"< < , E E E E E R R R R Y Y R Y Y Y J H Y Y I G P U _ [ @.G G G I I Y Y R R Y ! ( a.h.b.V.P.Y.P.Y.Q.Q.R.Y.W.).(.S.E R R E ; : w ",
"< , , E E E E E R R R R Y Y Y Y U I H H Y Y Y Y Y G G P O.G G G I Y Y Y I I I I I Y R ~ b.N.Z.Z.Y.Q.R.Y.Y.R.(._.(.M.( R E ; : , ",
"< , , E E E E E R R R R Y Y Y Y Y U U Y E c.S.S.b.~ H G G G G J Y Y I I I I I I Y Y Y Y ~ ~ a.M.P.T.P.Z.Z.Y.R.(.).T.d.E E O : 1 ",
"1 , , E E E E E R R R R R Y Y U Y Y Y a.S.W.(.(.T.C.a.I G G G I I I I I I I Y Y I I I Y Y Y Y a.N.Z.N.Z.Z.Z.Z.T./.W.b.^ E @ : 1 ",
"y w , e.E E E E R R R R R U U U Y Y ^ S.R.W.Q./.W.R.N.E G I I I G I I I I I Y Y I I Y Y Y Y Y Y E p.d.N.Z.Z.P.R.Q.R.l.E R + , 1 ",
"y , , e.E E E E E R R R R Y U U Y Y b.T.Y.S.Y.Y.R.T.Y.h.E I I I R R I G Y I Y Y Y Y Y Y Y Y Y Y Y Y R x.V.Z.P.T.T.M.p.E R + < 1 ",
"u y , e.E E E E E R R R R R Y Y Y Y b.Z.Z.Z.Z.P.Y.T.Q.P.f.~ ( h.Z.b.~ ~ R Y Y Y Y Y Y Y Y Y Y Y Y Y Y Q b.N.Z.Z.h.E E E T + < 3 ",
"u u y e.E E E E E R R R R R R Y R R v.N.Z.P.P.Z.Z.P.T.Y.N.P.S.N.R.Q.Y.S.x.p.Y Y Y Y Y Y Y I Y Y Y Y Y R d.b.M.h.( R E E T % 1 3 ",
"f u w q.E E E E E R R R R R R R R E M.T.Y.Y.Y.P.Z.Z.P.P.L.T.Q././.W.Q.R.S.b.( R W Y Y Y Y I Y Y Y Y Y Y ^ h.d.p.E E E E T < 3 3 ",
"f u w q.e.E E E E E R R R R R R R ^ S.Q.Q.T.R.Y.L.L.L.P.Y.E.(.(.Q.Y.Y.T.Y.Z.N.v.x.p.~ Y Y Y Y Y Y Y Y Y Y R R R R E E E T < 3 a ",
"f u e q.e.E E E E E R p.p.R R R R p.P.Q.Q.Q.Q.R.P.L.L.P.T.Q.Q.T.P.L.Z.P.L.Z.Z.Z.Z.Y.Z.y.^ R Y Y Y Y Y Y Y R R R R E E E q.1 3 a ",
"f u e q.e.e.E E E E p.M.l.s.p.E ^ k.T.W.R.Q.Q.Q.T.P.L.L.R./.R.L.Z.L.Z.L.L.L.L.Z.P.R.R.Y.Y.h.Y Y Y Y Y Y Y R R R R E E E r.< 3 a ",
"f e t q.e.e.E E E e.k.b.S.S.S.h.d.S.Y.T.Y.P.R.Q.T.Z.L.Z.T./.R.Z.N.N.Z.L.Z.Z.L.L.Z.Z.Y.R.W.N.R Y Y Y Y Y R R R R E E E E r.3 a g ",
"u e t w.e.e.e.E e.j.M.C.Z.T.T.S.b.W./.R.P.Z.P.Y.Z.Z.Z.Z.Y.R.Y.N.M.V.N.V.v.b.Z.Z.Z.N.Y.W.R.h.Y Y Y Y Y Y R R R R E E E E r.3 a h ",
"u t t w.e.e.e.E i.M.S.T.P.Y.R.P.P.Q.Q.T.Z.Z.L.L.L.N.M.M.V.N.M.x.h.( ! W Y R h.x.c.b.M.S.C.a.Y R Y Y R R R R R R E E E E r.3 g h ",
"i t 0 ,.e.e.e.e.i.k.M.T.T.R.W.S.Y.T.P.L.Z.Z.Z.Z.Z.N.x.^ ( R R ~ Y Y Y Y Y Y R Y R ~ ~ y.^ Y R R R Y R R R R E E E E E E t.3 g h ",
"i t t 4.e.e.e.e.g.j.j.l.S.R.R.N.Z.S.N.Z.Z.Z.V.V.n.h.R R R Y Y Y Y Y Y Y Y Y Y Y Y Y Y Y R Y R R R R R E R E E E E E E e.4.a h h ",
"i i t 9.e.e.i.j.A.I.A.s.h.B.b.b.x.d.v.b.b.f.~ ~ ~ W R R R R R R Y Y Y Y R Y Y Y Y R R R R R R R R R E E E E E E E e.e.e.9.g h h ",
"i t t 8.e.e.i.C.I.I.A.p.E i.E p.h.f.E ^ ^ R R R W W W W W W W R Y Y R R R R R R R R R R R R R R R R E E E E E E e.e.e.e.0.h h h ",
"f i t 6.e.e.e.j.j.g.s.i.E E E E E E R R R R R R W W W W W W R R R R R R R R W R R R R R R R R E E R E E E E E E e.e.e.e.7.h h h ",
"u u t k e.e.e.e.i.e.e.E E E E E E E E R R R R R ! ! W W W R R R W W W W W W ! R R R R R R E E E E E E E E E E e.e.e.e.e.z.h h h ",
"u e t l e.e.e.e.e.e.e.e.E E E E E E E E E E R R ! ! ! ! ! R R R W W ! W R R R R R R E E E E E E E E E E E E e.e.e.e.e.E m h h h ",
"u t t x e.e.e.e.e.E E E E E E E E E E E E E ~ ~ ! ! ! ! R R R R R ! ! ! R R R R E E E E E E E E E E E E e.e.e.e.e.y.e.^ B h h h ",
"u t t c e.e.e.e.e.e.e.E E E E E E ~ E E E E ~ ~ ~ ~ ~ ~ R ! ! ! ! ! ! R E E E E E E E E E E E E E E E E E e.e.e.e.y.^ ^ Z h h h ",
"u t t C e.e.e.e.e.e.E e.E E E E ^ E ~ ~ E ~ ~ ~ ~ ~ ~ ~ ~ ~ ~ ~ ~ ~ ~ ~ E E E E E E E E E E E E E E e.e.e.e.e.e.e.^ ^ ^ A h h h ",
"i i t d N u.8.9.w.w.t.w.>.4.4.4.2.2.2.Q T Q Q ~ ~ ~ ~ ~ ~ ~ ~ ~ ~ ~ E ~ Q Q Q T Q T T T T 2.2.2.<.t.t.t.w.r.t.t.0.7.n v j h h h ",
"i i i t t 0 0 t t p p t i i i 7 4 4 ; ; - o   X . . . . . % * = 3 1 , & @ O O o o O O 4 4 5 5 5 6 6 6 t i f f h h h h h h h h h ",
"i i i t t 0 t t p p p i i i i w 4 4 ; ; - -   . . . . # $ % = 2 3 1 & @ O O o O O ; 4 4 5 5 5 6 6 6 0 i i f f h h h h h h h h h "
};
