/* XPM */
static char *_607f7ac0eab421ba11cece97eb7dbb4Thdr44HslWWcBUMT[] = {
/* columns rows colors chars-per-pixel */
"64 64 192 2 ",
"   c #B3777D",
".  c #B57D7B",
"X  c #C7960B",
"o  c #C9970B",
"O  c #C79B0C",
"+  c #CA9C0C",
"@  c #C69B15",
"#  c #CA9C13",
"$  c #C79E19",
"%  c #CA9F1A",
"&  c #C6A40A",
"*  c #CCA40B",
"=  c #CDAB0B",
"-  c #D0A60B",
";  c #D2AD0B",
":  c #CDB30B",
">  c #CEBB0C",
",  c #D3B20B",
"<  c #D1BA0B",
"1  c #C5A317",
"2  c #CCA414",
"3  c #CEAB13",
"4  c #C7A418",
"5  c #CDA41C",
"6  c #CEAA1D",
"7  c #D1A616",
"8  c #D2AB14",
"9  c #D0A61D",
"0  c #D2AB1C",
"q  c #CDB514",
"w  c #CEB910",
"e  c #CDB21B",
"r  c #CEBF1B",
"t  c #D4B313",
"y  c #D9B717",
"u  c #D9BA15",
"i  c #D2B31C",
"p  c #D9B51C",
"a  c #D3B81C",
"s  c #D8B91C",
"d  c #CEA522",
"f  c #CEAB23",
"g  c #C6A52D",
"h  c #D0A722",
"j  c #D2AC23",
"k  c #D4AE2A",
"l  c #D4B124",
"z  c #D9B523",
"x  c #D6BB24",
"c  c #D9B921",
"v  c #D6B22D",
"b  c #D9B42D",
"n  c #C8B932",
"m  c #D3B63C",
"M  c #CEC10B",
"N  c #BC946D",
"B  c #BC9C6C",
"V  c #BA8676",
"C  c #B68C75",
"Z  c #BA8C75",
"A  c #B3847D",
"S  c #B9847A",
"D  c #B48C7C",
"F  c #B98B79",
"G  c #AE907B",
"H  c #B69575",
"J  c #BA9374",
"K  c #B69D72",
"L  c #BB9B72",
"P  c #B5937B",
"I  c #B9937C",
"U  c #B79D7B",
"Y  c #B99C7B",
"T  c #BFA166",
"R  c #BCA966",
"E  c #BCA36D",
"W  c #BEAB6B",
"Q  c #BFB067",
"!  c #BEB26A",
"~  c #BDA673",
"^  c #BCAC74",
"/  c #B9A57B",
"(  c #BAAA78",
")  c #BCB777",
"_  c #BEBC73",
"`  c #BBB47A",
"'  c #BDBE79",
"]  c #C2B345",
"[  c #CDB443",
"{  c #C6B54C",
"}  c #CAB74C",
"|  c #C6B84B",
" . c #C5AB5D",
".. c #C5B457",
"X. c #C8B656",
"o. c #C9B954",
"O. c #C4B259",
"+. c #C5B95A",
"@. c #C19E66",
"#. c #C2A463",
"$. c #C2A861",
"%. c #C0AC6A",
"&. c #C1B465",
"*. c #C1B46A",
"=. c #C1BA69",
"-. c #C1A571",
";. c #C0B370",
":. c #AF7686",
">. c #AD7C85",
",. c #AD758D",
"<. c #A77D8E",
"1. c #AB7B8C",
"2. c #B27486",
"3. c #B27C84",
"4. c #B1748B",
"5. c #B17B8A",
"6. c #A67694",
"7. c #AB7593",
"8. c #A57B94",
"9. c #AA7B93",
"0. c #A6779B",
"q. c #AA759A",
"w. c #A57A9A",
"e. c #AA7999",
"r. c #B07792",
"t. c #B27B93",
"y. c #9E8794",
"u. c #9E8C94",
"i. c #9E849B",
"p. c #9B8D98",
"a. c #9D9195",
"s. c #A78787",
"d. c #AE8284",
"f. c #AC8A83",
"g. c #A5838D",
"h. c #AC828C",
"j. c #AF838C",
"k. c #AE838E",
"l. c #AA868E",
"z. c #AD858E",
"x. c #A2898F",
"c. c #AE8A8C",
"v. c #B28381",
"b. c #B58581",
"n. c #B38981",
"m. c #B2838A",
"M. c #B18C8C",
"N. c #AF9081",
"B. c #AE938E",
"V. c #B1938E",
"C. c #B09E8F",
"Z. c #A48392",
"A. c #AB8393",
"S. c #AD8391",
"D. c #AB8693",
"F. c #AD8592",
"G. c #A38A93",
"H. c #AB8891",
"J. c #AD8A95",
"K. c #AE8B96",
"L. c #AD8D97",
"P. c #A08299",
"I. c #A38F98",
"U. c #AC8F99",
"Y. c #B28291",
"T. c #B18593",
"R. c #B18394",
"E. c #B08994",
"W. c #AC9493",
"Q. c #AD9C95",
"!. c #A29299",
"~. c #A8929B",
"^. c #A8959D",
"/. c #B09992",
"(. c #AFAE96",
"). c #ABA599",
"_. c #ACAC9B",
"`. c #B0A393",
"'. c #B0AA95",
"]. c #AEB297",
"[. c #ACB39D",
"{. c #AEBD9C",
"}. c #A7B5A2",
"|. c #A7BDA7",
" X c #AABAA3",
".X c #AABEA6",
"XX c #ABC194",
"oX c #AFC19D",
"OX c #B0C89B",
"+X c #A9C5AA",
"@X c #ABC9AC",
"#X c #B0C8A0",
/* pixels */
"b b b b b b b v l j j j j j k k v v v v v v v v v l 0 0 i t t w w > > > < < , < , t t i 0 j k k k k k k k k v v v v v v v v v v ",
"b b b b b b b l j 6 6 j j j j k k v v v v v l l l l i q q w > < < > > > > > , , , t i 0 0 k k k k k k k k k k v v v v k v v v v ",
"b b b b b b b j f 6 6 6 6 f j k v v v v b b l l i i q q w < > > > > > < < < < , , t 0 0 j k j j k k k k k k k k k k k k k k v v ",
"b b b m ;.~ Y I D n.F I L -.*.| l v b [ ~ L I D b.b.S F J E r > > < +.E J F S S S F L W { j k j [ %.L Z S S S S F J E *.[ k v v ",
"b b b o.^.^.~.U.L.L.E.T.T.T.F.#Xl l l ' H.H.H.F.z.k.k.k.z.z.! < < < @Xz.m.m.k.m.k.z.l.H.+Xj j j =.l.z.z.k.k.k.k.S.F.F.A.=.k k v ",
"b b b X.~.~.U.L.K.E.T.Y.Y.Y.Y.oXl l i ) H.H.z.k.k.k.m.k.k.z.! < < , .Xk.m.m.m.k.k.z.l.G..Xj h d ! l.l.k.k.k.k.S.S.S.A.A.*.k k k ",
"b b b ..~.U.L.K.E.Y.Y.Y.t.t.5.{.l l i ` F.z.z.k.k.5.5.5.k.k.W t , t  Xk.5.>.5.>.k.g.g.g. X9 h d W l.z.k.k.k.S.S.S.S.A.A.! k k k ",
"b b b  .U.L.K.F.R.Y.t.t.t.t.t.].0 6 e ( F.S.k.1.5.5.5.5.k.k.W t 8 0 }.5.5.5.5.5.5.>.g.l.[.5 5 d E g.k.k.1.1.9.9.9.S.S.A.W k k v ",
"b b b  .U.K.F.R.R.t.t.t.r.r.5.(.6 3 3 ( S.S.k.5.5.5.5.5.5.1.~ 0 7 7 _.5.3.3.3.5.5.5.k.g._.5 5 d E k.>.1.5.1.9.9.9.9.S.S.E k v v ",
"b b b  .K.K.F.R.t.t.t.t.t.r.r.'.2 3 3 / S.k.1.1.5.5.5.5.1.1.B 2 # # ).3.3.3.2.2.5.5.>.1.).5 5 5 L >.5.5.5.5.1.7.9.9.9.S.E v v v ",
"b b b #.K.K.F.R.9.t.e.t.t.t.r.`.2 3 = Y S.9.9.5.4.4.4.5.1.1.L # # # `.3.3.2.2.2.4.1.1.1.Q.2 2 6 L 5.5.5.4.5.5.7.7.9.S.S.L k v v ",
"b b v #.K.K.A.A.9.e.e.q.t.r.r./.4 3 * Y 9.9.9.r.4.4.4.5.1.1.J # # # /.3.2.2.2.2.4.1.1.1.Q.2 3 6 J 5.2.4.4.4.5.7.7.9.9.S.L j j v ",
"b b k @.K.F.A.A.e.e.q.q.q.q.r./.4 2 * I 9.9.7.r.4.4.4.,.1.1.Z O # o /.3.2.2.4.4.4.,.1.1.W.3 3 e J 2.2.2.4.4.4.7.9.e.9.S.J j j k ",
"b b k B K.F.A.9.e.e.q.q.q.q.r.V.1 2 & P 9.9.7.r.4.4.4.,.5.1.Z O O o V.2.2.4.4.4.4.,.,.1.W.e i a Z 2.2.4.4.4.,.7.e.9.9.S.J j j j ",
"b v k B F.F.A.9.e.e.q.q.q.q.q.V.4 & & D 9.9.7.7.4.4.4.4.r.1.F O X X M.2.2.4.4.,.,.,.,.9.K.i i a F 2.2.2.4.4.7.7.e.e.9.9.J j 9 j ",
"b k j N F.F.A.9.e.e.q.q.q.q.r.M.4 = = D 9.9.7.7.r.4.r.,.1.1.F X o X M.2.4.4.4.,.,.,.,.9.c.i i i V 2.2.2.4.,.7.q.q.e.9.S.J 6 6 j ",
"b k j N F.F.A.9.e.q.q.q.q.q.r.M.2 ; , n.9.7.7.1.4.4.,.,.1.1.S o X o M.2.4.4.4.,.,.,.,.7.c.i i i S 2.2.2.4.4.7.q.q.e.9.9.F 5 6 6 ",
"v k h J F.S.9.9.e.q.q.q.q.q.7.M.3 , : n.7.7.7.4.4.4.,.,.1.1.S # # O m.2.4.,.,.,.7.7.7.7.z.i i i S 2.2.2.4.,.7.q.q.e.9.9.F 5 6 6 ",
"k j h Z F.A.9.9.e.q.q.q.q.q.7.m.= > > n.7.7.1.,.4.4.,.,.1.1.S % # + m.4.4.,.,.7.7.7.7.7.k.i i i . 2.2.2.4.4.7.q.q.e.9.9.F 5 6 j ",
"k j h Z F.A.9.e.q.q.q.q.q.q.7.m.: > > b.7.1.,.,.,.4.,.,.1.1.S 2 + + m.4.,.,.,.7.7.7.7.6.k.i l i . 2.2.2.4.,.7.q.e.e.9.9.A 5 j j ",
"k j 9 F F.S.9.9.q.q.q.q.q.q.7.m.> > > v.1.9.1.,.,.,.,.,.,.1.. # O O m.,.,.,.,.7.7.7.6.9.k.l l l . 2.2.2.4.,.7.q.6.8.8.9.A j j j ",
"k j 5 F F.S.9.9.e.q.q.q.q.q.7.m.> < M v.9.7.1.,.,.,.,.,.1.1.. # O O 5.,.,.,.,.7.7.6.6.9.>.l l l . 2.2.4.4.,.7.7.q.8.8.9.A j j j ",
"k h 5 V F.S.9.9.q.q.q.q.q.q.7.5.> > M 3.9.7.,.,.,.,.,.,.,.1.. + O O 3.,.,.,.7.7.7.7.6.8.>.l l l   2.2.4.4.,.7.7.7.9.9.9.A j 6 j ",
"j 9 9 V F.S.9.9.q.q.q.q.q.7.,.3.> > > 3.9.9.1.,.,.4.,.,.1.1.3.O O + 3.,.,.,.7.7.7.7.6.8.1.l l l   2.2.4.4.,.7.7.7.9.9.g.A 0 6 j ",
"j 9 5 V F.S.9.9.q.q.q.q.q.q.,.3.> > > 3.9.7.,.,.4.4.,.,.,.1.3.O & & 3.,.,.,.7.7.7.7.6.8.1.l l l   2.2.2.4.,.7.7.q.9.9.S.v.6 f j ",
"j 5 5 V S.S.9.9.q.q.q.q.q.7.,.5.> > > 3.9.1.,.,.,.,.,.,.1.1.3.& * = 3.,.,.,.7.7.7.6.6.8.1.k j j   2.2.2.4.,.7.q.q.9.8.S.3.0 9 j ",
"5 5 % A S.9.9.9.q.q.q.q.q.7.7.5.> > > >.9.1.,.,.,.,.,.,.1.1.3.* * = 1.,.,.,.7.7.7.7.6.8.1.j j i   2.2.2.4.,.7.7.7.9.9.1.3.6 6 j ",
"5 5 4 S S.9.9.e.q.q.q.q.q.7.,.5.> > : >.9.1.,.,.,.,.,.,.1.1.3.* = = >.,.,.,.7.7.q.q.6.8.1.l i e   2.2.4.,.,.7.7.7.9.9.1.>.6 6 6 ",
"5 4 % S S.A.9.e.q.q.q.q.q.7.7.5., , , >.1.1.,.,.,.,.,.,.1.1.3.* = = :.,.,.,.7.7.q.q.8.8.1.e e e   2.2.4.,.,.7.7.9.9.8.1.>.3 6 9 ",
"5 5 $ b.S.A.9.e.q.q.q.q.q.7.7.5.= = * >.1.9.,.,.,.,.,.,.1.1.>.= = , :.,.,.,.7.7.q.6.8.8.<.q q >   2.2.4.,.,.7.7.w.e.8.1.>.3 3 0 ",
"5 5 $ v.S.9.e.e.q.q.q.q.q.7.1.1.= * * >.1.1.,.,.,.,.,.,.1.1.>.; , , >.,.,.,.7.7.6.6.8.w.<.q > > 3.2.:.,.,.,.7.7.w.e.8.S.>.3 7 0 ",
"d 5 $ v.S.9.9.e.q.q.q.q.q.7.1.1.= * & 1.1.1.,.,.,.,.,.,.1.1.>.; , : >.,.,.,.7.7.6.6.8.8.<.> > >   2.:.,.,.,.7.7.q.e.8.9.d.= 7 0 ",
"d 5 $ v.S.9.e.e.q.q.q.q.q.7.,.1.* * * 1.1.9.,.,.,.,.,.1.1.1.>., , , >.,.,.,.7.7.6.6.w.6.<.> > > >.:.:.:.,.,.7.7.q.e.9.8.>.= 3 0 ",
"j d 5 v.S.9.e.e.q.q.q.q.q.7.1.1.* = = 1.9.9.,.,.,.,.,.1.1.1.>., , , >.,.,.,.7.6.6.6.w.6.<.: > > >.:.:.,.,.,.7.7.8.w.9.8.>.= 8 0 ",
"h h 5 v.A.9.9.e.e.q.q.q.q.7.1.1.= = * >.9.9.7.,.,.,.,.,.1.1.>., : : >.1.,.,.7.6.6.6.w.8.<.: w > >.>.:.:.,.,.7.7.8.9.8.1.>.; 8 0 ",
"h 9 7 v.S.9.e.e.e.q.q.q.q.7.1.>.= = = >.9.9.9.,.,.,.,.1.1.1.>.: : : >.1.,.7.6.6.6.6.6.6.<.: > q   >.:.,.,.,.7.7.8.9.8.8.>.= 8 0 ",
"j 9 7 v.S.9.e.e.q.q.q.q.q.7.1.>.= = = >.1.1.9.,.7.,.,.1.1.<.>.: : : >.1.,.6.7.6.6.6.6.6.<.> q q   >.>.,.,.,.7.6.9.8.8.Z.d.= 3 0 ",
"j 9 7 A S.9.9.e.q.q.q.q.q.7.1.>.= = = >.1.1.9.7.,.,.,.9.<.<.>.: : : >.1.,.6.7.6.6.6.6.6.<.q q q   1.>.,.,.,.7.9.8.8.8.Z.d.* 3 9 ",
"9 9 0 A S.9.9.e.q.q.q.q.q.7.1.>.= = ; >.1.9.9.7.,.,.,.9.1.<.>.: : : >.1.1.,.7.6.6.6.6.6.<.q e e >.>.1.,.,.,.7.7.8.8.8.Z.d.* 2 j ",
"j 0 0 A S.9.9.e.q.q.q.q.q.7.9.>.; ; ; >.1.9.9.,.,.7.,.9.1.<.>.: : : >.1.1.1.6.6.6.6.6.6.<.e e e >.1.1.1.,.,.7.7.e.8.8.Z.d.2 2 j ",
"j 0 0 A A.A.9.e.q.q.0.q.q.9.1.>.; - - >.1.1.9.7.7.7.9.1.1.<.>.> : : >.1.1.1.7.6.w.6.6.6.<.e e e >.1.>.1.,.,.7.9.e.w.8.Z.d.2 5 j ",
"j 0 0 A A.9.9.0.0.q.q.q.q.9.1.>.* * * d.1.1.9.9.7.7.9.9.1.<.>.: : = >.1.1.1.,.6.w.w.6.6.<.e e l >.1.1.1.1.,.7.9.w.w.8.Z.d.2 d j ",
"l j 0 V Z.A.9.e.e.0.0.q.q.9.9.k.* * * d.g.8.9.9.7.7.8.8.<.8.>.= = : d.1.1.1.,.6.w.w.6.6.<.e i l . 1.1.1.1.,.7.9.w.w.8.8.d.% d j ",
"l l 0 V S.A.9.e.e.0.0.0.q.9.9.k.* * * d.g.8.9.9.9.7.9.8.8.<.d.= = : k.1.1.1.1.6.w.w.6.6.g.e i l . 1.1.1.1.,.,.7.8.w.8.8.v.4 h k ",
"l l i C A.A.9.e.0.q.q.q.q.9.9.k.- = * v.g.<.9.9.7.7.8.8.8.8.d.: > : d.<.1.1.1.6.8.w.6.6.g.i l l A 1.1.1.1.1.9.9.9.8.8.Z.A 5 j k ",
"l l i C A.A.A.e.e.q.0.q.e.9.9.k.; = = n.g.<.9.9.7.9.8.8.8.<.d.: : > k.<.1.1.1.<.8.8.6.6.g.l i i v.<.1.1.1.1.9.9.8.w.8.Z.A d d k ",
"z z p C A.A.9.e.0.0.0.q.e.9.9.k.; ; ; n.g.<.8.8.8.w.8.8.8.8.A > : = s.<.1.1.<.<.8.8.6.6.S.i i i A <.1.1.1.,.9.9.9.9.8.Z.A d j k ",
"z p y Z A.A.A.0.0.0.0.q.e.9.9.c.; ; ; n.Z.Z.8.9.8.8.8.8.8.8.A : : : c.g.1.<.<.<.8.8.w.6.l.i i 8 A <.1.1.1.1.9.9.e.9.8.Z.D d h k ",
"z p p C A.A.9.w.e.e.0.q.e.e.9.c.; ; ; n.Z.Z.8.8.w.w.w.w.8.Z.A : : : c.1.1.1.1.1.8.w.w.w.A.i t ; D <.1.1.1.1.9.e.e.9.8.A.D d k k ",
"z p p J A.A.A.w.e.0.0.0.e.e.9.M., , ; D D.g.Z.8.8.w.w.w.8.Z.A > : > c.g.1.1.1.1.9.w.w.w.H.i , ; D g.<.1.1.1.9.9.9.9.8.Z.D f k v ",
"p p y N G.A.A.w.0.e.0.0.e.e.9.V., , , D g.Z.Z.8.8.w.8.8.8.Z.D > > : B.g.g.g.1.1.1.8.w.8.H.t ; ; D g.g.<.1.1.9.9.e.9.8.Z.J k k v ",
"p p u N G.A.A.9.0.e.e.0.e.9.9.B., , , P g.Z.Z.8.8.8.8.8.8.8.D : : = B.g.g.1.1.1.1.8.8.8.H.8 ; ; C Z.g.<.1.1.9.9.9.9.9.S.J k k v ",
"z s u B G.A.A.w.9.e.e.w.e.9.9.B., , , P D.Z.Z.8.8.8.w.w.8.Z.D = = = W.g.k.k.1.1.1.8.w.8.W.; ; - H Z.g.g.1.1.1.9.9.9.9.S.J k v v ",
"z s u B G.A.A.A.A.9.e.9.e.9.9.C., ; , P g.D.Z.8.8.8.8.w.8.Z.P 3 3 3 Q.g.g.g.k.<.<.8.w.8.W.; - * H D.g.g.<.1.1.9.9.9.9.S.L k v v ",
"z y y T G.D.A.A.A.9.e.9.9.9.8.`.; , ; Y D.D.Z.Z.8.8.8.8.8.Z.H 3 8 3 Q.g.g.g.k.1.1.8.w.w.Q.- * + H G.g.g.g.1.1.9.9.9.9.S.B v v v ",
"z p p #.G.G.A.S.A.9.9.9.9.9.8.`.; ; ; U G.D.D.Z.8.8.8.w.8.Z.L 7 3 3 ).g.g.g.g.g.<.8.8.8.).* + + L G.g.g.g.1.1.9.9.9.9.S.E v v v ",
"z p y $.G.G.Z.A.A.A.A.9.9.S.S.(.; ; ; / G.G.G.Z.Z.8.8.w.w.P.L 0 2 7 _.g.g.g.g.g.g.8.8.8.).+ + * E P.G.x.g.g.1.9.1.1.k.k.E v v v ",
"z p p  .G.G.G.Z.Z.A.S.S.S.S.S.].; ; ; ( G.G.G.G.Z.Z.8.i.P.i.E 5 7 5 [.x.x.g.g.g.g.Z.8.8.[.+ + * E y.y.G.g.g.g.g.g.S.k.k.%.v v v ",
"z p y ..I.I.I.G.G.A.A.A.A.A.D.].; ; ; ^ G.u.G.G.P.Z.i.i.i.i.W 9 5 0  Xu.x.x.x.x.G.Z.Z.Z.}.+ * = W y.y.G.G.D.D.A.A.g.g.z.*.v v v ",
"p p y ..!.!.I.I.G.G.D.D.D.D.G.{., ; ; ) u.p.G.G.P.P.i.i.i.i.! 5 9 9 .Xu.G.G.x.G.G.G.Z.i.|.= = = ! u.p.u.G.G.G.g.A.A.F.F.*.v v v ",
"p p y } !.!.!.!.I.G.G.G.G.G.G.OX; ; ; _ a.p.p.u.u.i.i.i.i.i.*.5 5 5 @Xp.u.G.G.G.G.G.P.P.XX= = = O.p.p.p.u.G.G.G.A.A.F.z.=.v v v ",
"s p s x W K P N.f.c.f.D P L Q n ; ; ; f E P f.s.g.g.g.s.D K g 5 j j ] B P f.s.s.f.D H R : ; : , > E H G f.s.s.A C J T &.m v v v ",
"c s p p y u u y u s c s p c a t ; ; ; ; - * + % @ @ @ @ @ 5 d d f j 9 6 2 * * + & * * = = : , , , , , t z z v v v v v v v v v v ",
"c z s y u u u y s s s s s c z i ; ; ; ; - - + @ @ @ @ @ $ % d f j j 5 2 * * & * * = = = , , , , , , t a z z v v v v v v v v v v "
};
