/* XPM */
static char *_c086fac1ce241a6ed75bcff5503cf1ahKe7okfBhpeJGXsE[] = {
/* columns rows colors chars-per-pixel */
"64 64 236 2 ",
"   c #091D1E",
".  c #123637",
"X  c #1C666A",
"o  c #BC7F6F",
"O  c #B3777D",
"+  c #B67C7A",
"@  c #C7960B",
"#  c #CA9D0B",
"$  c #C8990C",
"%  c #C69B15",
"&  c #CA9C13",
"*  c #C79E19",
"=  c #CA9F1A",
"-  c #F09F0F",
";  c #F48F14",
":  c #C6A40A",
">  c #CCA40B",
",  c #CDAA0B",
"<  c #D0A50B",
"1  c #D2AD0B",
"2  c #CDB30B",
"3  c #CEBB0C",
"4  c #D3B30B",
"5  c #D1BA0B",
"6  c #C6A617",
"7  c #CCA514",
"8  c #CEAB13",
"9  c #CDA41C",
"0  c #CEAA1D",
"q  c #D1A616",
"w  c #D2AB14",
"e  c #D0A61D",
"r  c #D2AB1C",
"t  c #CDB514",
"y  c #CEB910",
"u  c #CDB21B",
"i  c #CEBF1B",
"p  c #D4B313",
"a  c #D9B717",
"s  c #D9BA15",
"d  c #D2B31C",
"f  c #D9B51C",
"g  c #D3B81C",
"h  c #D8B91C",
"j  c #D88D3B",
"k  c #EE9326",
"l  c #E79638",
"z  c #E5953B",
"x  c #CEA522",
"c  c #CEAB23",
"v  c #C6A52D",
"b  c #D0A722",
"n  c #D2AC23",
"m  c #D4AE2A",
"M  c #D4B124",
"N  c #D9B523",
"B  c #D6BB24",
"V  c #D9B921",
"C  c #D6B22D",
"Z  c #D9B42D",
"A  c #CFB739",
"S  c #CEC10B",
"D  c #B1AC4E",
"F  c #BC946D",
"G  c #BC9C6C",
"H  c #BA8676",
"J  c #B68C75",
"K  c #BA8C75",
"L  c #B3847D",
"P  c #B9847A",
"I  c #B48C7C",
"U  c #B98B79",
"Y  c #AE907B",
"T  c #B69575",
"R  c #BA9374",
"E  c #BB9B72",
"W  c #B5937B",
"Q  c #B8997A",
"!  c #BEA566",
"~  c #BCA36D",
"^  c #BEAB6B",
"/  c #BFB067",
"(  c #BEB26A",
")  c #BAA977",
"_  c #BCB977",
"`  c #D78E4B",
"'  c #D9924B",
"]  c #D78F53",
"[  c #D79455",
"{  c #E39C48",
"}  c #C9B547",
"|  c #C5AB5D",
" . c #C5B558",
".. c #E8A24A",
"X. c #F1AA4C",
"o. c #F8BA5D",
"O. c #C19E66",
"+. c #C2A664",
"@. c #C1B767",
"#. c #C1B46A",
"$. c #C1AC71",
"%. c #F7BE60",
"&. c #E0C274",
"*. c #9B7E9A",
"=. c #AF7686",
"-. c #AE7C83",
";. c #AD758D",
":. c #A77D8E",
">. c #AB7B8C",
",. c #B27486",
"<. c #B27C85",
"1. c #B1748B",
"2. c #B17B8B",
"3. c #A77792",
"4. c #AB7593",
"5. c #A57B94",
"6. c #AA7C93",
"7. c #A6779B",
"8. c #AB759A",
"9. c #A57A9A",
"0. c #AA7999",
"q. c #B07792",
"w. c #B27B93",
"e. c #33AAB1",
"r. c #7796BB",
"t. c #72A5BB",
"y. c #52C5B6",
"u. c #72C8AB",
"i. c #3CBBD9",
"p. c #3CADE5",
"a. c #2FBAED",
"s. c #35BCE4",
"d. c #34BCEB",
"f. c #3DB9E9",
"g. c #2EBFF3",
"h. c #35BAF7",
"j. c #599ECE",
"k. c #669DC4",
"l. c #58ABC8",
"z. c #4AADD8",
"x. c #55A9D5",
"c. c #49B7D8",
"v. c #55B5D0",
"b. c #67A7C4",
"n. c #63B5C7",
"m. c #60A1D2",
"M. c #4CACE2",
"N. c #43BAE4",
"B. c #37CBDE",
"V. c #29C7EC",
"C. c #32C4EE",
"Z. c #39C7E9",
"A. c #35CCEE",
"S. c #34D3EB",
"D. c #39D7EB",
"F. c #2DC5F2",
"G. c #33C4F2",
"H. c #34CBF4",
"J. c #39CBF5",
"K. c #35C4F8",
"L. c #39C8F8",
"P. c #34D3F4",
"I. c #3AD4F5",
"U. c #35DAF5",
"Y. c #3CDBF5",
"T. c #3DD6F8",
"R. c #3DE2EF",
"E. c #3DE3F5",
"W. c #3DEAF5",
"Q. c #54CACE",
"!. c #48C4D8",
"~. c #61D4CE",
"^. c #43C4E7",
"/. c #55C5E5",
"(. c #46D8EA",
"). c #54D8E9",
"_. c #44CDF3",
"`. c #44D5F6",
"'. c #43DDF5",
"]. c #4CDEF9",
"[. c #52D9F7",
"{. c #46E0EA",
"}. c #43E3F6",
"|. c #4BE4F6",
" X c #43EAF5",
".X c #4BE9F6",
"XX c #46E6F8",
"oX c #4BE4F9",
"OX c #54E4F9",
"+X c #54E4FA",
"@X c #9D8A96",
"#X c #9E8C94",
"$X c #9E849B",
"%X c #958E9A",
"&X c #AE8384",
"*X c #AC8A83",
"=X c #A5838D",
"-X c #AC838D",
";X c #AE828D",
":X c #A3888C",
">X c #AE8A8C",
",X c #B28381",
"<X c #B38981",
"1X c #B2838A",
"2X c #B18C8C",
"3X c #B1938E",
"4X c #B09E8F",
"5X c #A48392",
"6X c #AB8393",
"7X c #A38A93",
"8X c #AC8A94",
"9X c #A08299",
"0X c #A38F98",
"qX c #AB8F99",
"wX c #B18393",
"eX c #B08994",
"rX c #AC9493",
"tX c #AD9D95",
"yX c #A29299",
"uX c #A9939B",
"iX c #B09992",
"pX c #BFB584",
"aX c #ABA599",
"sX c #ADAD99",
"dX c #B0A393",
"fX c #B0AA95",
"gX c #ACB39D",
"hX c #AEB99A",
"jX c #888AAA",
"kX c #888FAC",
"lX c #A7B9A5",
"zX c #AABBA4",
"xX c #ADC199",
"cX c #B0C89B",
"vX c #AAC6AB",
"bX c #B0C8A0",
/* pixels */
"Z Z Z Z Z Z Z C M n n n n n m m C C C C C C C C C M r r d p p y y 3 2 3 5 5 5 5 4 p p d r n m m m m m m m m C C C C C C C C C C ",
"Z Z Z Z Z Z Z M n 0 0 n n n n m m C C C C C M M M M d t t y 3 5 5 3 3 3 3 3 4 4 4 p d r r m m m m m m m m m m C C C C m C C C C ",
"Z Z Z Z Z Z Z n c 0 0 0 r c n m C C C C Z Z M M d d t t y 5 3 3 3 3 3 5 5 5 5 4 4 p r r n m m m m m m m m m m m m m m m m m C C ",
"Z Z Z A #.) Q W I <XU R E $.#.} M C Z } ^ E R I ,X,XP U R ~ i 3 3 5  .~ R U P P P U E ^ } n m n } $.E K P P P P U R ~ #.} m C C ",
"Z Z Z  .uXuXuXqXqX8XeXwXwXwX6XbXM M M _ 8X8X8X6X-X-X-X-X-X-X( 5 5 5 vX-X-X1X-X1X-X-X-X8XvXn n n @.-X-X-X-X-X-X-X6X6X6X6X@.m m C ",
"Z Z Z  .uXuXqXqX8XwXwXwXwXwXwXxXM M d _ 8X8X-X-X-X-X1X-X-X-X( 5 5 4 zX-X-X1X1X-X-X-X-X7XzXn b x ( -X-X-X-X-X-X6X6X6X6X6X#.m m m ",
"Z Z Z  .uXqXqX8XwXwXwXwXw.w.w.hXM M d _ 6X-X-X-X-X2.2.1X-X-X^ p 4 p zX-X2.-.2.-.-X-X-X=XzXe x x ^ -X-X-X-X-X6X6X6X6X6X6X( m m m ",
"Z Z Z | qXqX8XwXwXwXw.w.w.w.w.hXr 0 u ) 6X6X-X>.2.2.2.2.-X-X^ p w r zX2.2.2.2.2.2.-.-X-XgX9 9 x ~ -X-X-X>.>.6.6.6.6X6X6X^ m m C ",
"Z Z Z | qX8X8XwXwXw.w.w.q.q.2.sX0 8 8 ) 6X6X-X2.2.2.2.2.2.>.~ r w q sX2.<.<.<.2.2.2.-X-XsX9 9 x ~ -X-X>.2.>.6.6.6.6.6X6X~ m C C ",
"Z Z Z | 8X8X8XwXw.w.w.w.w.q.q.fX7 8 8 ) 6X-X>.>.2.2.2.2.>.>.E 7 & & aX<.<.<.,.,.2.2.-.>.aX9 9 9 E -.2.2.2.2.>.4.6.6.6.6X~ C C C ",
"Z Z Z +.8X8X6XwX6.w.0.w.w.w.q.dX7 8 , Q 6X6.6.2.1.1.1.2.>.>.E & & & dX,.<.,.,.,.1.>.>.>.tX7 7 0 E 2.2.2.1.2.2.4.4.6.6X6XE m C C ",
"Z Z C +.8X8X6X6.0.0.0.8.w.q.q.4X6 8 > Q 6.6.6.q.1.1.1.2.>.>.R & & & iX,.,.,.,.,.1.>.>.>.tX7 8 0 R 2.,.1.1.1.2.4.4.6.6.6XE n n C ",
"Z Z m O.8X8X6X6.0.0.8.8.8.4.q.iX6 7 > W 6.6.4.q.1.1.1.;.>.>.R $ & $ iX,.,.,.1.1.1.;.>.>.rX8 8 t R ,.,.,.1.1.1.4.6.0.6.6XR n n m ",
"Z Z m G 8X8X6X6.0.0.8.8.8.8.q.3X6 7 : W 6.6.4.q.1.1.1.;.2.>.K $ $ $ 3X,.,.1.1.1.;.;.;.>.rXu d g K ,.,.1.1.1.;.4.0.0.6.6XR n n n ",
"Z C m G 8X8X6X6.0.0.8.8.8.4.4.3X6 : : I 6.6.4.4.1.1.1.1.q.>.U $ @ @ 2X,.,.1.1.=.;.;.;.6.8Xd d g U ,.,.,.1.1.4.4.0.0.6.6.R n r n ",
"Z m n F 8X8X6X6.0.0.8.8.8.4.q.2X6 , , I 6.6.4.4.q.1.q.;.>.>.U @ $ @ 2X,.1.1.1.;.;.;.;.6.>Xd d d H ,.,.,.1.;.4.4.4.0.6.6.R 0 0 n ",
"C m n F 8X6X6X6.0.8.8.8.8.4.q.2X7 1 1 <X6.4.4.;.1.1.;.;.>.>.P $ @ @ 2X,.1.1.1.;.;.;.;.4.>Xd d d P ,.,.,.1.1.4.4.4.0.6.6.U 9 0 0 ",
"C m b R 8X6X6.6.0.8.8.8.8.4.4.2X8 1 2 <X6.4.4.1.;.1.;.;.>.>.P & & $ Z.S.c.;.;.;.4.4.4.4.-Xd d d P ,.,.,.1.;.4.4.4.0.6.6.U 9 0 0 ",
"m n b K 8X6X6.6.0.8.8.8.8.4.4.1X, 3 3 <X6.4.>.;.;.;.;.;.>.>.P = i.s.^.(.d.!.;.4.4.4.4.4.-Xd d d + ,.,.,.1.1.4.4.4.0.6.6.I 9 0 n ",
"m n b K wXwX6.6.8.8.8.8.8.8.4.1X2 3 3 ,X6.>.;.;.;.;.;.;.>.>.P i.Z.I.K.Y.E.D.!.4.4.4.4.3.-Xd d d + ,.,.1.1.;.4.4.4.0.6.6.L 9 n n ",
"m n e U 6X6X6.6.8.8.8.8.4.4.4.1X2 3 3 ,X>.6.>.;.;.;.;.;.;.>.c.!.Y.L.I.E.E.{.S.4.4.4.3.4.>.M M M + ,.,.,.1.;.4.4.3.5.5.6.L n c n ",
"m n e U 6X6X6.6.0.8.8.8.4.4.4.1X3 5 S ,X6.4.>.;.;.;.;.;.>.>.d.^.K.Y.Y.B.R. X(.r.4.3.3.4.>.M M M + ,.,.1.1.;.4.4.4.5.5.6.L n n n ",
"m b 9 H 6X6X6.6.8.8.8.8.4.4.4.2.3 3 S <.6.4.>.;.;.;.;.;.;.l.f.T.K.E.}.X   Q.n.c.3.3.3.5.>.M M M O ,.,.1.1.;.4.4.4.6.6.6.L n c n ",
"n e e P 6X6X6.6.8.8.8.8.8.4.4.2.3 3 3 <.6.6.>.;.;.;.;.;.>.c.^.h.T.}. Xe.. ~.u.u.D ..z ` >.M M M O ,.,.1.1.;.4.4.4.6.5.>.L r 0 n ",
"n e 9 P 6X6X6.6.8.8.8.8.8.4.4.<.3 3 3 <.6.4.;.;.;.;.;.;.;.c.f.L.}..X.X.X.X+X).&.o.o.o.' >.M M M O ,.,.,.1.;.4.4.4.6.6.6.,Xr r n ",
"n 9 9 P 6X6X6.6.8.8.8.8.8.4.4.2.3 3 3 <.6.>.;.;.;.;.;.;.;.l.p.J..X.X.X|.+X].).%.o.X.[ 5.>.m n n O ,.,.1.1.;.4.4.4.5.6.6.<.r r n ",
"9 9 = L 6X6X6.6.8.8.8.8.4.4.4.2.3 3 3 -.6.>.;.;.;.;.;.;.>.%Xi.~.oX|.|.+X+X).).pXz o 3.5.>.n n d O ,.,.1.1.;.4.4.4.5.6.>.<.r 0 c ",
"9 9 9 P 6X6X6.0.8.8.8.8.4.4.;.2.3 2 2 -.6.>.;.;.;.;.;.;.>.>.s.u.oX+X+X+X+X[.'.).4.4.3.5.>.M d u O ,.,.1.;.;.4.4.4.5.5.-X-.0 0 c ",
"9 9 = P 6X6X6.0.8.8.8.8.4.4.4.2.4 4 4 -.>.>.;.;.;.;.;.;.>.>.c.u.+X+X+X+X+X].'.(.4.4.5.5.>.u t t O ,.,.=.;.;.4.4.6.6.5.=X-.8 0 r ",
"9 9 * ,X6X6.6.6.8.8.8.8.4.4.4.2., , > -.>.6.;.;.;.;.;.;.>.x.V.).+X+XoXoXoX'.'.S.t.3.0.5.:.t t 3 O ,.,.1.;.;.4.4.0.0.5.6X-.8 8 r ",
"9 9 * ,X6X6.6.8.8.8.8.8.4.4.4.>., > : -.>.>.;.;.;.;.r.s.a.N./.oXoX|.}.}.}.}.}.(.S.n.0.0.:.t 3 3 <.,.=.;.;.;.4.4.0.0.5.6.-.8 w r ",
"x 9 * ,X6X6.6.0.8.8.8.8.4.4.>.>., > > -.>.>.;.;.k.a.C.Z._.Y.}.}.}.}.}.}.}.}.}.Y.Y.D.kX0.>.3 3 3 -.,.=.;.;.;.4.4.4.0.5.6.-., w r ",
"x 9 * ,X6X6.6.0.8.8.8.8.4.4.;.>.> > > >.>.6.;.z.g.J.H.I.Y.}.}.}.}.}.}.}.}. XE.E.Y.D.!.0.:.3 3 3 -.=.=.=.;.;.4.4.3.0.5.5.-., 8 r ",
"n x 9 ,X6X6.0.0.8.8.8.8.4.4.>.>.: > > >.6.6.d.G.J.H.I.Y.Y.E.}.}.}.'.}.}.}.}.E.E.E.Y.S.kX:.3 3 3 -.=.=.;.;.;.4.4.5.0.5.5.-., w r ",
"b b 9 ,X6X6.0.0.0.8.8.8.4.4.>.>.> > : >.6.g.G.H.P.Y.Y.Y.E.E.}.{.'.'.}.T.T.I.E.E.W.Y.U.b.:.3 3 3 -.=.=.=.;.;.4.4.5.6.5.:.-.1 w r ",
"b e q ,X6X6.0.0.8.8.8.8.4.4.>.-.> > , -.c.F.P.H.P.U.U.U.E.E.Y.(.(.'.Y.H.P.L.E.W.W.Y.P.c.:.3 3 y O =.=.;.;.;.4.4.5.6.5.5.-., w r ",
"n r q ,X6X6.0.0.8.8.8.8.4.4.>.-., , , -.C.C.H.U.Y.U.U.Y.Y.Y.T.(.D.Y.T.I.J.H.W.W.W.Y.P.^.:.3 t t O =.=.;.;.;.4.3.6.5.5.5X&X, 8 r ",
"n r q L 6X6.0.0.8.8.8.8.4.4.>.-., D y.V.C.A.P.P.U.P.P.P.P.I.Y.(.I.Y.Y.J.J.Y.W.W.W.Y.A.c.:.t t t O >.=.;.;.;.4.6.5.5.5.5X&X> 8 r ",
"r r r L 6X6.6.0.8.8.8.8.4.4.$Xb.P.P.S.P.A.S.P.P.P.P.P.I.I.I.H.H.I.Y.I.I.K.E.W.W.W.Y.H.b.:.t u u O >.>.;.;.;.4.3.5.0.5.5X&X> 7 n ",
"n r r L 6X6.6.0.7.8.8.8.4.z.F.G.H.H.U.U.P.P.H.H.P.I.Y.I.P.H.H.P.P.H.H.K.`.}. X XE.I.C.*.:.0 u u -.>.>.>.;.;.4.4.6.5.5.5X&X7 7 b ",
"n r r L 6X6X6.0.7.7.8.7.x.a.h.g.H.P.P.H.P.P.P.P.P.P.P.P.H.P.I.P.H.L.L.`.'.}. X X}.^.V.5.:.u u u -.>.>.>.;.;.4.5.0.0.5.5X&X7 9 n ",
"n r r L 6X6.6.7.9.r.p.p.j.z.G.H.C.d.d.H.H.P.P.P.P.H.H.P.I.H.L.L.L.T.].].].}.}. X'.N.x.5.:.u u M -.>.>.>.>.;.4.6.0.0.5.5X&X7 x n ",
"M n r L 5X6X6.kXM.M.N.N.f.c.z.c.i.Z.A.H.F.P.P.P.P.P.P.L.K.G.L.J.`.].].].].oXXXXX_.d.5.5.>.u d M + >.>.>.>.;.4.6.0.0.5.5.,X= x n ",
"M M r L 6X6X6.0.0.r.m.x.M.M.x.c.Q.Q.!.N.Z.A.H.P.P.H.H.L.L.L._._.].[.[.[.].oX).^.s.jX5.5.-Xd d M + :.>.>.>.;.;.4.0.0.5.5.,X9 b n ",
"M M d J 6X6X6.0.7.7.8.8.4.6.6.-X< 6 > ,X=X:.5.N.H.H.Z.Z._.`._.[.[.[.[././.^.d.z.5.0.5.5.-Xd M M L >.>.>.>.;.6.6.6.5.5.5XL 9 b m ",
"M M d J 6X6X6.0.0.7.7.8.0.6.6.>X< , > <X=X:.6.6.6.b.N.d.d.n.c.^.^.!.v.v.z.k.kX:.5.5.5.5.-XM d d ,X:.>.>.>.>.6.6.5.0.5.5XL x x m ",
"N N f J 6X6X6.0.7.7.7.8.0.6.6.>X1 1 1 <X=X=X5.5.5.0.5.5.j 5.L 2 2 , >Xj >.>.>.:.5.5.5.5.6Xd d d L :.>.>.>.;.6.6.6.5.5.5XI x n m ",
"N f a K 6X6X6.0.0.7.7.8.0.6.6.>X1 1 1 <X5X5X5.6.5.0.0.0.; 5.L 2 2 , >X; :.>.>.:.5.5.5.5.-Xd d w L :.>.>.>.>.6.6.6.5.5.5XI x m m ",
"N f f J 6X6X6.0.0.0.7.0.0.0.6.>X1 1 1 <X5X5X5.5.0.0.0.0.k 5XL 2 2 2 >Xk >.>.>.>.5.0.5.5.6Xd d 1 L :.>.>.>.>.6.0.0.6.5.5XI x m m ",
"N f f R 6X6X6X0.7.7.7.7.0.0.6.2X4 4 1 I 7X5X5X5.5.0.0.0.X.5XL 2 2 2 >X..>.>.>.>.5.0.0.5.>Xd 4 1 L =X:.>.>.>.6.6.6.6.5.5XI x m C ",
"f f a F 7X6X6X0.0.0.7.7.0.0.6.3X4 4 4 I =X5X5X5.5.0.5.5...l I 2 2 2 { { =X>.>.>.:.5.5.5.8Xp 1 1 I =X=X:.>.>.6.6.6.6.5.5XR m m C ",
"f f s F 7X6X6X6.7.0.0.7.0.6.6.3X4 4 4 W =X5X5X5.5.5.5.] z j k 2 , - ' z ` =X>.>.>.5.0.5.8Xw 1 1 J 5X=X:.>.>.6.6.6.6.6.6XR m m C ",
"N h a G 7X6X6X0.6.0.0.0.0.6.6.3X4 4 4 W 7X5X5X5.5.0.[ ] -Xz I , , , l =X] ] >.>.>.5.0.5.rX1 1 < T 5X=X:.>.>.>.6.6.6.6.6XR m C C ",
"N h a G 7X5X6X6X6.6.0.6.6.6.6.4X1 1 4 W =X7X5X5.5.5.5.9.5.z W 8 8 8 [ =X=X=X=X:.:.5.0.5.rX1 < > T 7X=X=X:.>.>.6.6.6.6.6XE m C C ",
"N a a ! 7X7X6X6X6.6.0.0.6.6.6.dX1 4 1 Q 7X7X5X5X5.5.5.5.5.5XT 8 w 8 tX=X=X=X=X>.>.5.0.0.tX< > # T 7X=X=X=X>.>.6.6.6.6.6XG C C C ",
"N f f +.7X7X6X6X6X6.6.6.6.6.5.dX1 1 1 Q 7X7X7X5X5.5.5.9.5.5XE w 8 8 aX:X=X=X=X=X:.5.5.5.aX> # # E 7X=X=X=X>.>.6.6.6.6.6X~ C C C ",
"N f a +.7X7X7X6X5X6X6X6.6.6X6XsX1 1 1 ) 7X7X7X5X5X5.5.9.9.9XE r 7 q sX:X=X=X=X=X=X5.5.5.aX# # > ~ 7X7X=X=X=X>.>.>.>.-X-X~ C C C ",
"N f a | 7X7X7X5X5X6X6X6X6X6X6XsX1 1 1 ) 7X7X7X7X5X5X9.$X9X$X~ 9 q 9 gX:X=X=X=X=X=X5X5.5.gX# # > ~ @X7X7X7X=X-X>.>.6.-X-X$.C C C ",
"N f a  .0X0X0X7X7X6X6X6X6X6X7XhX1 1 1 ) 7X#X7X7X7X5X$X*.$X$X^ 9 9 r zX#X7X:X=X=X7X5X5X5XlX# > , ^ @X@X7X7X7X7X7X6X6X-X-X#.C C C ",
"f f a  .yXyX0X0X7X7X7X7X7X7X7XhX4 1 1 _ #X#X7X7X7X9X$X$X$X$X( 9 e e zX#X7X7X7X7X7X7X5X$XlX, , , ( @X@X#X7X7X7X7X6X6X6X6X#.C C C ",
"f f a } yXyXyXyX0X7X7X7X7X7X7XcX1 1 1 _ #X#X#X#X@X$X$X$X$X$X@.9 9 9 vX#X#X7X7X7X7X7X7X9XxX, , ,  .@X@X#X#X7X7X7X6X6X6X-X@.C C C ",
"h f h B ^ E W *X*X>X*XI W E / A 1 1 1 c ~ W *X*X=X=X=X&XI E v 9 n n } G W *X*X:X*XI T ! 2 1 2 4 2 ~ T Y *X*X*XL J R ~ @.A C C C ",
"V h f f a s s a a h V h h V g p 1 1 1 1 < > # = % % % % % 9 x x c n r 0 7 : : # > : > , , 2 4 4 4 4 4 p N N C C C C C C C C C C ",
"V N h a s s a a h h h h h V N d 1 1 1 1 < < # % % % % % * = x c n n 9 7 > : > : > , , , 4 4 4 4 4 4 p g N N C C C C C C C C C C "
};
