/* XPM */
static char *_1c711e12b4742febc415c533e31645dBBAyL9K4saiY8qO1[] = {
/* columns rows colors chars-per-pixel */
"64 64 70 1 ",
"  c #D4AA0D",
". c #CFBB0B",
"X c #DBB600",
"o c #DDBA02",
"O c #DDB50F",
"+ c #D3BC0F",
"@ c #DDBB0D",
"# c #D7AD10",
"$ c #D8AF14",
"% c #DCB517",
"& c #D6BD12",
"* c #DABD14",
"= c #DDB71B",
"- c #DFB91D",
"; c #E2BD03",
": c #E3BC0E",
"> c #E3BD14",
", c #E0B719",
"< c #E0BB1E",
"1 c #DDBA20",
"2 c #E3BE22",
"3 c #DDC605",
"4 c #DEC804",
"5 c #DEC60E",
"6 c #DEC909",
"7 c #DFC115",
"8 c #DEC01C",
"9 c #E1C503",
"0 c #E5CA00",
"q c #E8CB00",
"w c #E4C20C",
"e c #E9CC0C",
"r c #E6C111",
"t c #E6C313",
"y c #E0C015",
"u c #E3C314",
"i c #E6C215",
"p c #E2C417",
"a c #E5C414",
"s c #E8C715",
"d c #E6CA14",
"f c #E8C914",
"g c #E0C319",
"h c #E0C11A",
"j c #E6C01B",
"k c #E7C01B",
"l c #E2C11E",
"z c #E4C11F",
"x c #E8C41A",
"c c #E8C21F",
"v c #E6C91A",
"b c #E8C91A",
"n c #DFC63A",
"m c #DFC43F",
"M c #E3C123",
"N c #E4C022",
"B c #E7C423",
"V c #E3C025",
"C c #E5C126",
"Z c #E7C427",
"A c #E8C120",
"S c #E8C522",
"D c #E8C024",
"F c #E8C427",
"G c #E9C924",
"H c #E7C328",
"J c #E7C428",
"K c #E9C328",
"L c #E8C52A",
"P c #E9C62B",
/* pixels */
"LLLJJJZCM---<222CHJHJJJFCz>y7556633444999wwijjADDDADKLLLLLLLLLLL",
"LLJJJZCN-%---<<2VCCCZZCNNMlhhyypyp7yyyyyatijzADDAADDDKLLLLJHJLLL",
"LJHCHCCCM2MC22MC2CCCCHCCCCC22C22222222CCCHJLLLLLLLLLLLLLLLHCHHJL",
"HHCCCC222222222222C2CCCCCC22222222222CCCJLLLLLLLLLLLLLLLLLLmnCJL",
"HMCC2222222<2<22222222222222222222222CCHHJJJJJLLLLLLLLLLLLLLLHHJ",
"CCCC2222222<<<2222222222222C2CV22222CCCHHJJJLLLLLLLLLLLLLLLLLJCJ",
"CCC2222222<<<<2<<<22222222CV22C22222CCHHHJLLLLLLLLLLLLLLLLLLLLCJ",
"HCCC2222222222222222<2222CCCC222222CCCHCCJJJJJLLLLLLLLLLLLLLLLMZ",
"HCCCCC22222222222222222222CC2222222CCCCCCCCCCCHJLLLLLLLLJHHHJLVF",
"JHHHCCCCCCCC22222222222222C222222C2CCCCCCCCCCCCHLLLLLLLJCCCCHJLN",
"LJJHCHHCCCCCC22222222222222222CCCCCCCCCCC222CCCCHJHJJHJCCCCCCJLM",
"LJJHHHHCCCC22222222222222222222CCCCCCC222222CCCCCJHJJHCCCCCCCJLV",
"LJJJHCCCCCCC22C2222222<222222222CCCC22222222CCCCCCCHCCCC2CCCCHLV",
"LLLLJHCCCCCCCCCCCCCC2<2<<22222222222222222222CCCCCCCCCC22CCCCJLl",
"LHJHCCCCCCCCCCCCCCCM22<22222222222222222V2222VCCCCCC222222CCHLL8",
"JCCCCCCCCCCCCCCCCCC22222<<22222222222C2CV222222222222222CCCHJLC>",
"CVCCCCCCCMCCCCCHCC22222<<<2<<222222222222222222222222222CCCJLLM>",
"22CCCCCCC2CCHCCCC222222<-<-----<222222222222<22222<<<<22CCCLLLM>",
"22CCCCCCCCHHHCCC2222222-<-----2<<2222<<<<<<<22222<<-<<22CCHJLLNl",
"22CCCCCCCHHHCCCCCC22222<----=<-<<<2<<---<<-<22222<---<22CHJJLLNl",
"2<CCCHCHHJHCC2CC2222222<-----<<-<<<<<-<-<--<22222<----22CHJJLLNz",
"2=CHHHHJJHCCCC22222222<-------<<<<2<<<----<222222<---<22CCHJLLBz",
"2=CJHJJJHCCCC22222222<<-----<<2222222<<--<2222222<---<22CCHJLLzz",
"2,LJJJJHCCCC222222222<------<222222222<<<2222222<<-<-<22CCJJLLhz",
"<<JJJJHHCC2222222222<<<<<--<22222C222222222222222<<-<<222CHJJLjz",
",,JJLJHCCC22N2222222<2<<<<2222CCCCC2222222222222222<--<22CCJJJij",
"%<LLJHCCCC2CCCC22222222<2222VCCCCCC2222222222222222<<-<222CJJZyj",
"%<LLHCCCCCCCCCCCCC222222222CCCCCCC22222222222222222<--<<2CCHJZij",
"%-LJCCCCCCCCCCHCCCC2222222CCCCCCCCC222222C2222CC222---<<22CHJJyi",
"%%HHCCCCCCCCCHHHCCC22222CCCCCCCC22222222C222CCCC22<<<-<222CHJJ:i",
"%%CHCCCCCCHHJHCCCC2222CCCCCCCCC22222222C22CCCCCC222<<<<22CCCLJwt",
"=<LHCCCCCHHJJJHHCCC22CCCCCCCC2222C2222C2CCCCCCCC2222<<<222CCLJwt",
"=HLJHCCCHHJJJHHCCC22CCCCCCCC222CC2222C2CCCCCCCCN2222<<2222CHLJwt",
"<LLJHHHHHHJJHHCCC22C2CCCCCC2222C2222C2CCCCCCCCC2222222<222CHLJ;t",
"<LLLLJJHHJJHHCCC22N22CCCC22222CC222C22CCCCCCCC2N2222222222CCJL;t",
"2LLLLLJJJJHHCCC2222222C22222CCCCC2C2CCCCCCHCC2C2222222222CCCJL>t",
"2LLLLJJJJHHCCC2222222222222CCCCC2C22CCCCCCCCCC2N222222222CCCHLht",
"<LLLLLJJHHCCC2222222222222CCCCC22C2CCCCCCCC2C22CC22222222CCCHLl>",
",LLLLLLLHCCC22222222222222CCC22222CCCCCCCC22222CCCC222C2CCCCCJN<",
"<CLLLLLHCCC22222222222222222222222NCCCCCV22222CCCC22222CCCCCCJC<",
"<jLLLLJCCC2222222222222222222222222222222222222CCC222CCCCCCCCHC<",
"z>JLLJHCCCC2CCC2222222222222<<222222222222222222C22222CCCCCCCHN<",
"c<CLJHCCCCCCCCCCC2222222222<<<<2222222222<22222222222CCCCCCCCCM<",
"zzNJHCCCCCCCCHCCCC222222222<<<222222222<<<<<<222222222CCCCCCCC22",
"NzNHCCCCCCCCCHJHHCCCC22222<<<222222222<<--<-<222222222CCCCCCCC22",
"BcNCCCCCCCCHHHJJCCCCC222<<<<<<22222222<-------<2222222CCCCCCCC22",
"SxlCCCCCCCCHJHHCCCCC2222<<<<<222V22222<-----<<2<<22222CCCCNNCC2C",
"Sx8CCCCCCCHHJJCCCC2222<<-<<<2222VM2222<-----<<<<<22222CCCCNNCC2C",
"Bi8CCCCCCCCCCCCCC222<<------<22222222<------<<<--<22222222CCCC2C",
"xtlCCCCCCCCCCC22222<<--=----<<2222222<---=-------<<222222CCCCCCL",
"iaMCNCCCCCC2222222<<--===--<<2222222<------=--=<<<-22222CCCCCHCL",
"xxCC222NCC222222<<---====--<<22222222<----===--<<<<222CCCCCCHJJL",
"xzC222222222222<---===-----<2222222222<-=====--<<<222CCCCCCHJLLL",
"cNC22222222222<<-=------<<2222C222222<--====--<<2222CCCCHJJLLLLL",
"cCC2222222222<<-------<<222CCCCCCC222<--==---<<222CCHHHJLLLLLLLL",
"cCC22222222<<-------<<222CCCHCCCCCC222<<---<<2222CCCJJJLLLLLLLLL",
"zCC22222222<-------<2222CCCHCHHHCCC2222<<<22222CCCHJJJLLLLLLLLLL",
"zCCCC22222<---=--<2222CCCHHJHHJHCC22222222222CCCHHJJJLLLLLLLLLLL",
"jCCCC22222<-----<222CCCJJJLJJLLJCCC22222222CCCCLLLLLLLLLLLLLLLLL",
"xcZCC22C222<---222CCCCJJLLLLLLJHCCCCCCCCCCCHHHLLLLLLLLLLLLLLLLLL",
"xsBHHCCCV222<--2NCCCHJJLLLLLLLLHHCCCCCCHHJJJJLLLLLLLLLLLLLLLLLLL",
"bbbZLCCCC222-%2CCCHJJLLLLLLLLLLJHHCCCCHHJJJJLLLLLLLLLZLLLLLLLLLL",
"bbbsph88hh*&..+&&*8ZLLLLLJZVM888---*@ooO>lNZZZBctawfbGZZLLLLLLLL",
"bxbffedddddddvxy;;;;:<<%$  #$$=1<<*@oXXXo;99900qqqefbGGLLLLLLLLL"
};
